<svg width="200" height="560" viewBox="0 0 200 560" fill="none" xmlns="http://www.w3.org/2000/svg">
<path fill-rule="evenodd" clip-rule="evenodd" d="M99.9935 360.677C155.218 360.677 199.987 405.297 199.987 460.339C199.987 515.38 155.218 560 99.9935 560C44.7686 560 -7.21781e-06 515.38 0 460.339C7.21781e-06 405.297 44.7686 360.677 99.9935 360.677ZM99.9935 366.677C151.924 366.677 193.987 408.63 193.987 460.339C193.987 512.048 151.924 554 99.9935 554C48.0635 554 5.99999 512.048 6 460.339C6.00001 408.63 48.0635 366.677 99.9935 366.677Z" fill="white"/>
<path d="M6.00003 8.58307e-06L6.0005 306C6.00054 329.196 24.8045 348 48.0004 348L194 348L193.999 0H199.999L200 354L48.0004 354C21.4908 354 0.000540748 332.51 0.000496285 306L0.000460875 8.58307e-06H6.00003Z" fill="white"/>
</svg>
