<svg width="480" height="320" viewBox="0 0 480 320" fill="none" xmlns="http://www.w3.org/2000/svg">
<path d="M453.26 300H26.7395C25.7818 300 25 299.32 25 298.5C25 297.68 25.7818 297 26.7395 297H453.26C454.218 297 455 297.68 455 298.5C455 299.32 454.218 300 453.26 300Z" fill="#05141F"/>
<path d="M290.565 230.516C297.806 229.244 315.536 226.035 338.903 230.457C340.664 230.79 342.191 231.906 343.013 233.51C344.461 236.348 347.122 241.651 351.134 249.636C351.134 249.636 358.297 253.374 361.995 257.014C363.17 258.168 363.815 259.754 363.815 261.378V284.001C363.815 284.001 363.659 287.132 359.647 287.132L268.275 286.995C268.275 286.995 264.693 286.388 264.693 282.357V261.417C264.693 259.832 265.378 258.305 266.572 257.268C268.842 255.311 272.893 252.141 277.355 250.36C277.355 250.36 283.187 239.557 286.338 233.569C287.199 231.945 288.765 230.81 290.585 230.477L290.565 230.516Z" fill="white"/>
<path d="M359.627 288.619L268.255 288.482C268.255 288.482 268.099 288.482 268.001 288.463C266.337 288.169 263.187 286.545 263.187 282.377V261.437C263.187 259.421 264.067 257.503 265.574 256.172C268.099 253.981 271.954 251.045 276.279 249.205C277.414 247.072 282.248 238.129 285.007 232.904C286.083 230.868 288.001 229.459 290.291 229.048L290.526 229.009C298.08 227.678 315.771 224.567 339.157 229.009C341.408 229.44 343.287 230.829 344.304 232.845C345.713 235.624 348.336 240.79 352.21 248.56C353.835 249.44 359.667 252.689 362.994 255.957C364.422 257.366 365.244 259.343 365.244 261.378V284.001C365.166 285.645 363.894 288.6 359.608 288.6L359.627 288.619ZM268.412 285.547L359.627 285.684C361.995 285.684 362.289 284.334 362.328 283.923V261.398C362.328 260.145 361.819 258.932 360.958 258.071C357.455 254.626 350.527 250.986 350.449 250.947C350.175 250.81 349.96 250.575 349.823 250.301C345.831 242.317 343.15 237.013 341.701 234.176C341.095 232.982 339.979 232.16 338.629 231.906C315.771 227.581 298.452 230.633 291.054 231.925L290.819 231.964C289.43 232.199 288.275 233.06 287.629 234.293C284.479 240.282 278.647 251.084 278.647 251.084C278.49 251.378 278.216 251.632 277.903 251.75C273.539 253.491 269.527 256.662 267.531 258.403C266.65 259.167 266.142 260.282 266.142 261.437V282.377C266.142 284.784 267.864 285.41 268.412 285.547Z" fill="#05141F"/>
<path d="M283.676 287.191V293.14C283.676 295.469 281.778 297.367 279.449 297.367H272.776C270.447 297.367 268.549 295.469 268.549 293.14V287.191H283.696H283.676Z" fill="#05141F"/>
<path d="M360.743 288.502H268.079L279.821 278.228C280.643 277.504 281.426 276.799 282.169 276.114C286.142 272.513 289.273 269.656 294.029 269.656H332.503C337.181 269.656 339.803 271.809 344.167 275.371C345.048 276.095 346.026 276.897 347.122 277.758L360.723 288.482L360.743 288.502ZM275.887 285.567H352.269L345.302 280.087C344.187 279.206 343.208 278.404 342.308 277.66C338.179 274.294 336.124 272.592 332.503 272.592H294.029C290.389 272.592 287.903 274.862 284.126 278.287C283.383 278.971 282.58 279.696 281.739 280.42L275.887 285.547V285.567Z" fill="#05141F"/>
<path d="M267.785 241.828H273.676C275.496 241.828 276.983 243.315 276.983 245.135V249.382H268.333C266.435 249.382 264.889 247.836 264.889 245.937V244.704C264.889 243.1 266.181 241.808 267.785 241.808V241.828Z" fill="white"/>
<path d="M278.471 250.849H268.353C265.652 250.849 263.441 248.657 263.441 245.937V244.704C263.441 242.297 265.398 240.34 267.805 240.34H273.696C276.338 240.34 278.471 242.493 278.471 245.115V250.83V250.849ZM267.785 243.295C267.003 243.295 266.357 243.941 266.357 244.724V245.957C266.357 247.053 267.237 247.933 268.333 247.933H275.516V245.154C275.516 244.137 274.694 243.315 273.676 243.315H267.785V243.295Z" fill="#05141F"/>
<path d="M360.078 249.382H351.428V245.135C351.428 243.315 352.915 241.828 354.735 241.828H360.626C362.23 241.828 363.522 243.119 363.522 244.724V245.957C363.522 247.855 361.976 249.401 360.078 249.401V249.382Z" fill="white"/>
<path d="M360.078 250.849H349.96V245.135C349.96 242.493 352.113 240.36 354.735 240.36H360.626C363.033 240.36 364.99 242.317 364.99 244.724V245.957C364.99 248.657 362.798 250.869 360.078 250.869V250.849ZM352.895 247.914H360.078C361.174 247.914 362.054 247.033 362.054 245.937V244.704C362.054 243.921 361.408 243.276 360.626 243.276H354.735C353.717 243.276 352.895 244.098 352.895 245.115V247.894V247.914Z" fill="#05141F"/>
<path d="M313.736 254.607C293.461 254.607 277.355 251.867 277.101 251.828L277.61 248.931C278.001 249.01 317.767 255.742 350.782 247.816L351.467 250.673C339.02 253.667 325.654 254.607 313.736 254.607Z" fill="#05141F"/>
<path d="M289.802 267.66L275.985 267.347C274.948 267.327 273.95 266.858 273.265 266.075C272.228 264.901 269.86 261.867 270.193 259.108C270.33 257.973 270.917 256.994 271.876 256.329C272.58 255.703 276.181 253.824 287.884 259.343C289.332 260.008 292.796 261.789 293.383 263.707C293.54 264.216 293.5 264.724 293.324 265.194C293.109 266.153 292.189 267.543 289.802 267.66ZM275.163 258.482C274.028 258.482 273.598 258.716 273.578 258.716C273.285 258.932 273.148 259.147 273.109 259.46C272.972 260.654 274.224 262.728 275.476 264.137C275.633 264.313 275.848 264.411 276.064 264.411L289.763 264.724C290.232 264.705 290.448 264.548 290.467 264.509V264.411C289.978 263.824 288.295 262.748 286.651 261.985C280.428 259.049 276.944 258.482 275.163 258.482Z" fill="#05141F"/>
<path d="M350.253 267.719L337.396 267.64C334.754 267.503 333.932 265.84 333.854 264.901C333.521 262.493 337.005 260.38 339.138 259.323C350.469 253.785 353.972 255.703 354.794 256.407C355.616 256.994 356.183 257.953 356.32 259.069C356.653 261.809 354.363 264.842 353.365 266.016C352.817 266.642 351.526 267.68 350.293 267.699L350.253 267.719ZM336.809 264.607C336.809 264.607 337.102 264.685 337.474 264.705L350.234 264.783C350.234 264.783 350.88 264.392 351.095 264.137C352.289 262.728 353.522 260.634 353.385 259.441C353.346 259.127 353.209 258.912 352.935 258.697C352.895 258.677 350.195 257.19 340.429 261.965C338.785 262.787 337.044 264.04 336.77 264.607V264.666C336.77 264.666 336.77 264.627 336.828 264.627L336.809 264.607Z" fill="#05141F"/>
<path d="M360.41 287.21V293.16C360.41 295.488 358.512 297.387 356.183 297.387H349.51C347.181 297.387 345.283 295.488 345.283 293.16V287.21H360.43H360.41Z" fill="#05141F"/>
<path d="M223 298H120C120 298 120.404 290.067 125.825 272.846L126.686 269.812L220.641 275.82L223 298Z" fill="#05141F"/>
<path d="M244.986 229.616C237.765 230.164 234.516 225.819 233.812 220.613L231.933 210.359L220.074 239.146L221.953 275.625L125.472 270.126L136.158 222.942L120.052 235.174C115.472 239.42 108.368 239.283 103.965 234.86C101.166 232.062 99.9923 228.05 100.834 224.195L117.899 149.966C120.267 137.852 128.173 127.265 139.641 121.668L172.851 105.503L190.445 106.755L224.712 111.863C243.891 114.72 249.292 134.505 254.008 153.39L254.36 215.349C254.36 215.349 253.46 229.087 244.967 229.616H244.986Z" fill="white"/>
<path d="M221.972 277.073C221.972 277.073 221.913 277.073 221.894 277.073L125.414 271.574C124.983 271.554 124.592 271.339 124.318 270.987C124.044 270.634 123.966 270.204 124.063 269.773L133.868 226.524L120.971 236.328C115.903 241.025 107.938 240.888 102.947 235.898C99.7966 232.747 98.4659 228.246 99.4248 223.882L116.49 149.633C118.956 136.971 127.39 126.012 139.015 120.356L172.225 104.192C172.46 104.074 172.714 104.015 172.969 104.055L190.562 105.307L224.947 110.415C245.593 113.487 251.053 135.425 255.456 153.038C255.476 153.156 255.496 153.273 255.496 153.391L255.848 215.369C255.809 216.093 254.752 230.496 245.084 231.123C238.039 231.651 233.284 227.815 232.364 220.848L231.405 215.564L221.581 239.42L223.44 275.566C223.459 275.977 223.303 276.388 223.009 276.682C222.735 276.956 222.364 277.112 221.972 277.112V277.073ZM127.312 268.736L220.426 274.04L218.626 239.185C218.626 238.97 218.645 238.755 218.743 238.559L230.603 209.772C230.857 209.165 231.464 208.813 232.109 208.871C232.755 208.95 233.284 209.419 233.401 210.065L235.28 220.339C235.71 223.529 237.491 228.696 244.889 228.148C251.993 227.698 252.912 215.369 252.912 215.251L252.54 153.567C247.237 132.314 241.757 115.875 224.497 113.292L190.23 108.184L173.145 106.99L140.287 122.998C129.484 128.263 121.656 138.459 119.347 150.259L102.262 224.547C101.538 227.913 102.556 231.397 105.002 233.843C108.877 237.718 115.042 237.835 119.054 234.117L135.277 221.788C135.766 221.416 136.451 221.396 136.96 221.729C137.469 222.062 137.743 222.688 137.606 223.295L127.292 268.795L127.312 268.736Z" fill="#05141F"/>
<path d="M205.435 63.447C205.435 63.447 211.052 58.1827 206.864 47.0082C202.676 35.8338 181.579 45.8732 174.28 52.0181C165.434 59.4547 172.773 79.1226 172.773 79.1226C172.773 79.1226 168.467 68.9658 156.608 74.2105C148.291 77.8897 149.817 89.5143 150.561 96.9313C151.031 101.589 147.997 103.683 147.997 103.683C147.997 103.683 159.857 103.448 160.659 91.53C161.266 82.4495 173.243 82.5278 173.243 82.5278L205.435 63.4666V63.447Z" fill="#05141F"/>
<path d="M147.978 104.642C147.547 104.642 147.175 104.368 147.038 103.957C146.901 103.546 147.038 103.096 147.41 102.861C147.508 102.783 149.954 101.002 149.543 97.0095L149.465 96.1485C148.702 88.5749 147.528 77.146 156.178 73.3103C160.248 71.4903 163.966 71.2359 167.176 72.4883C168.409 72.9776 169.466 73.643 170.307 74.3671C168.683 67.8307 167.176 56.6758 173.634 51.2549C179.231 46.5385 193.478 39.1998 201.854 41.3916C204.75 42.1548 206.727 43.9161 207.744 46.6559C212.109 58.3001 206.335 63.9167 206.081 64.1515C206.022 64.2102 205.964 64.2494 205.905 64.2885L173.712 83.3497C173.556 83.4475 173.38 83.428 173.203 83.4867C172.773 83.4867 162.146 83.5258 161.598 91.5691C160.737 104.231 148.095 104.622 147.978 104.622V104.642ZM162.968 73.6625C161.129 73.6625 159.113 74.1322 156.98 75.0911C149.622 78.3593 150.659 88.5162 151.422 95.9528L151.5 96.8138C151.735 99.2601 151.128 101.08 150.385 102.333C153.673 101.569 159.133 99.1622 159.661 91.4517C160.189 83.7019 168.428 81.5884 172.949 81.5297L204.809 62.6642C205.435 62.0184 209.604 57.165 205.924 47.3409C205.122 45.2078 203.635 43.877 201.365 43.2899C193.752 41.2938 180.072 48.3781 174.906 52.7422C166.687 59.6504 173.614 78.555 173.673 78.7507C173.849 79.24 173.614 79.8075 173.125 80.0032C172.636 80.1989 172.068 79.9641 171.853 79.4748C171.853 79.4357 170.229 75.7761 166.432 74.2888C165.356 73.8582 164.201 73.6625 162.968 73.6625Z" fill="#05141F"/>
<path d="M171.501 75.2673C172.323 75.0716 173.164 75.4826 173.83 76.285C173.869 72.7036 173.908 70.2574 173.908 70.2574C173.908 61.5487 180.973 54.5035 189.662 54.5035H196.492C201.423 54.5035 205.435 58.4958 205.435 63.447V84.2891C205.435 92.9782 198.39 100.043 189.701 100.043C189.74 102.822 190.112 105.581 190.816 108.262C191.521 110.943 186.511 116.012 186.511 116.012C186.511 116.012 171.697 109.397 172.871 105.503C173.321 104.016 173.595 91.9018 173.771 82.2929C173.614 82.3908 173.438 82.4691 173.243 82.5082C171.892 82.8213 170.405 81.471 169.935 79.4749C169.466 77.4787 170.17 75.6 171.52 75.2673H171.501Z" fill="white"/>
<path d="M186.491 117.46C186.296 117.46 186.081 117.421 185.885 117.323C181.071 115.171 170.053 109.671 171.442 105.053C171.56 104.661 171.931 101.941 172.245 83.9564C171.54 83.839 170.835 83.4867 170.248 82.9192C169.407 82.156 168.781 81.0405 168.487 79.788C167.822 76.9503 168.996 74.328 171.168 73.8191C171.579 73.7213 171.99 73.7017 172.401 73.78C172.421 71.5882 172.44 70.2378 172.44 70.2378C172.44 60.7464 180.17 53.0162 189.662 53.0162H196.492C202.226 53.0162 206.903 57.6739 206.903 63.4079V84.25C206.903 93.2326 199.995 100.63 191.208 101.413C191.325 103.605 191.678 105.757 192.225 107.871C193.067 111.12 188.859 115.699 187.548 117.01C187.274 117.304 186.883 117.441 186.511 117.441L186.491 117.46ZM173.712 80.8448C173.967 80.8448 174.202 80.9035 174.417 81.0209C174.886 81.2949 175.219 81.7646 175.2 82.293C174.847 103.937 174.417 105.366 174.241 105.914C173.888 107.069 179.055 110.924 186.12 114.212C187.959 112.157 189.603 109.593 189.349 108.615C188.625 105.816 188.233 102.939 188.194 100.043C188.194 99.6515 188.331 99.2797 188.625 98.9862C188.918 98.6926 189.27 98.5556 189.662 98.5556C197.529 98.5556 203.928 92.1367 203.928 84.2695V63.4275C203.928 59.3178 200.582 55.9713 196.453 55.9713H189.623C181.736 55.9713 175.337 62.3903 175.337 70.2574C175.337 70.2574 175.317 72.7037 175.258 76.3045C175.258 76.9112 174.867 77.4592 174.28 77.6744C173.693 77.8701 173.047 77.694 172.655 77.2243C172.303 76.8134 171.971 76.6568 171.794 76.6959C171.442 76.7742 170.972 77.7723 171.286 79.1226C171.442 79.788 171.775 80.3947 172.166 80.7665C172.401 80.9818 172.675 81.0992 172.812 81.06C173.066 80.9035 173.36 80.8252 173.634 80.8252L173.712 80.8448Z" fill="#05141F"/>
<path d="M200.112 72.3905C198.429 72.3905 198.429 75.9914 200.112 75.9914C201.795 75.9914 201.795 72.3905 200.112 72.3905Z" fill="#05141F"/>
<path d="M185.239 72.3905C183.556 72.3905 183.556 75.9914 185.239 75.9914C186.922 75.9914 186.922 72.3905 185.239 72.3905Z" fill="#05141F"/>
<path d="M188.409 65.6975C188.409 65.6975 185.611 61.9792 182.597 65.6975Z" fill="white"/>
<path d="M188.409 66.676C188.116 66.676 187.822 66.5391 187.627 66.2846C187.627 66.2846 186.648 65.0322 185.474 65.0126C184.73 65.0126 184.065 65.4431 183.36 66.3042C183.028 66.7152 182.401 66.7935 181.99 66.4412C181.579 66.1085 181.501 65.4823 181.853 65.0713C182.969 63.7014 184.221 63.036 185.533 63.0556C187.685 63.0947 189.153 65.0126 189.212 65.1104C189.544 65.541 189.447 66.1477 189.016 66.4803C188.84 66.6173 188.644 66.676 188.429 66.676H188.409Z" fill="#05141F"/>
<path d="M194.926 79.103C194.926 79.103 195.044 80.5903 196.198 82.3125C196.648 82.9975 196.413 83.9368 195.65 84.2304C195.259 84.3869 194.789 84.5043 194.222 84.5631" fill="white"/>
<path d="M194.926 79.103C194.926 79.103 195.044 80.5903 196.198 82.3125C196.648 82.9975 196.413 83.9368 195.65 84.2304C195.259 84.3869 194.789 84.5043 194.222 84.5631" stroke="#05141F" stroke-linecap="round" stroke-linejoin="round"/>
<path d="M198.86 89.6512C198.86 89.6512 194.222 92.8999 188.409 89.6512Z" fill="white"/>
<path d="M193.713 92.0975C192.01 92.0975 190.053 91.7061 187.94 90.5123C187.47 90.2579 187.294 89.6512 187.568 89.1815C187.822 88.7118 188.429 88.5357 188.899 88.8097C194.085 91.7061 198.155 88.9858 198.312 88.8684C198.762 88.5553 199.369 88.6727 199.682 89.1228C199.995 89.5729 199.877 90.1796 199.447 90.4731C199.31 90.571 197.059 92.117 193.732 92.117L193.713 92.0975Z" fill="#05141F"/>
<path d="M166.452 213.372H232.579C234.164 213.372 235.554 212.296 235.965 210.77L255.926 138.145C256.513 135.914 254.85 133.723 252.54 133.723H186.413C184.828 133.723 183.439 134.799 183.028 136.325L163.066 208.95C162.479 211.181 164.143 213.372 166.452 213.372Z" fill="#70D7BF"/>
<path d="M232.579 214.84H166.452C164.886 214.84 163.458 214.136 162.499 212.903C161.54 211.67 161.227 210.085 161.638 208.578L181.599 135.954C182.167 133.781 184.163 132.274 186.413 132.274H252.54C254.106 132.274 255.535 132.979 256.494 134.212C257.452 135.445 257.766 137.03 257.355 138.537L237.393 211.161C236.806 213.333 234.83 214.84 232.579 214.84ZM186.413 135.21C185.494 135.21 184.672 135.836 184.437 136.717L164.475 209.341C164.319 209.948 164.436 210.594 164.828 211.102C165.219 211.611 165.806 211.905 166.452 211.905H232.579C233.499 211.905 234.321 211.279 234.556 210.398L254.517 137.774C254.673 137.167 254.556 136.521 254.165 136.012C253.773 135.503 253.186 135.21 252.54 135.21H186.413Z" fill="#000C19"/>
<path d="M167.724 182.061L179.623 181.337L190.973 173.509L187.607 183.861C185.435 190.554 179.603 195.388 172.636 196.308L163.595 197.482L151.54 206.308L143.633 192.159L171.071 172.139L167.724 182.061Z" fill="white"/>
<path d="M151.54 207.795C151.442 207.795 151.324 207.795 151.227 207.756C150.816 207.658 150.463 207.404 150.268 207.032L142.361 192.883C141.989 192.237 142.185 191.415 142.772 190.985L170.209 170.964C170.718 170.593 171.423 170.593 171.951 170.964C172.46 171.336 172.675 172.002 172.48 172.608L169.838 180.456L179.153 179.888L190.171 172.295C190.699 171.943 191.384 171.962 191.873 172.334C192.382 172.706 192.578 173.372 192.402 173.959L189.036 184.311C186.707 191.493 180.347 196.777 172.851 197.756L164.182 198.891L152.42 207.482C152.166 207.658 151.872 207.756 151.559 207.756L151.54 207.795ZM145.551 192.609L152.009 204.175L162.734 196.327C162.929 196.19 163.164 196.092 163.419 196.053L172.46 194.879C178.84 194.057 184.241 189.556 186.237 183.43L188.273 177.188L180.484 182.55C180.268 182.706 180.014 182.785 179.74 182.804L167.841 183.528C167.352 183.528 166.883 183.352 166.589 182.961C166.295 182.569 166.217 182.061 166.354 181.61L168.213 176.072L145.571 192.609H145.551Z" fill="#05141F"/>
<path d="M253.108 174.409L257.961 161.63L253.108 148.948L246.082 175.407L253.108 174.409Z" fill="white"/>
<path d="M246.082 176.875C245.671 176.875 245.26 176.698 244.986 176.385C244.654 176.014 244.536 175.505 244.673 175.035L251.699 148.576C251.855 147.97 252.403 147.52 253.049 147.48C253.695 147.48 254.263 147.833 254.497 148.42L259.351 161.101C259.488 161.434 259.488 161.806 259.351 162.138L254.497 174.937C254.302 175.446 253.852 175.798 253.323 175.877L246.298 176.875C246.298 176.875 246.161 176.875 246.102 176.875H246.082ZM253.362 153.704L248.059 173.646L252.032 173.078L256.376 161.63L253.343 153.723L253.362 153.704Z" fill="#05141F"/>
<path d="M146.119 188.519L155.277 205.447C156.334 207.404 155.943 209.83 154.338 211.357L141.931 223.099C139.661 225.252 135.962 224.762 134.338 222.081L122.008 201.689C120.541 199.282 121.421 196.131 123.907 194.801L139.484 186.523C141.872 185.251 144.827 186.151 146.119 188.519Z" fill="#05141F"/>
<path d="M195.396 64.797C195.396 64.797 197.745 61.0004 200.856 64.797Z" fill="white"/>
<path d="M200.856 65.7754C200.563 65.7754 200.289 65.658 200.093 65.4232C199.35 64.5034 198.625 64.0924 197.98 64.0924C197.158 64.1511 196.434 64.9926 196.218 65.3253C195.925 65.7754 195.338 65.9124 194.868 65.6384C194.418 65.3449 194.281 64.7578 194.555 64.2881C194.614 64.2098 195.827 62.2724 197.843 62.1354C199.173 62.0571 200.426 62.7421 201.6 64.1707C201.933 64.5817 201.874 65.2079 201.463 65.5406C201.287 65.6972 201.072 65.7559 200.837 65.7559L200.856 65.7754Z" fill="#05141F"/>
<path d="M145.982 190.984C145.982 190.984 145.923 190.984 145.903 190.984C145.101 190.945 144.475 190.241 144.514 189.438L146.412 156.384C147.078 141.1 131.891 137.989 131.245 137.852C130.443 137.695 129.934 136.932 130.091 136.13C130.247 135.327 131.011 134.818 131.813 134.955C131.989 134.994 150.13 138.654 149.348 156.521L147.449 189.595C147.41 190.378 146.764 190.984 145.982 190.984Z" fill="#05141F"/>
<path d="M109.758 210.555C109.758 210.555 114.357 199.165 124.572 197.541" stroke="#05141F" stroke-width="1.5" stroke-linecap="round" stroke-linejoin="round"/>
<path d="M182.421 275.174C182.421 275.174 182.323 275.174 182.284 275.174C181.482 275.096 180.895 274.372 180.973 273.57L186.942 213.392C187.02 212.59 187.764 212.002 188.546 212.081C189.349 212.159 189.936 212.883 189.858 213.685L183.889 273.863C183.81 274.626 183.184 275.194 182.421 275.194V275.174Z" fill="#05141F"/>
<path d="M176.57 128.341C176.276 128.341 176.002 128.302 175.767 128.263C169.681 127.147 164.104 112.881 163.047 110.043C162.773 109.28 163.145 108.438 163.908 108.164C164.671 107.89 165.513 108.262 165.787 109.025C168.174 115.444 173.027 124.779 176.296 125.386C176.687 125.464 177.255 125.445 177.998 124.584L185.317 115.092C185.591 114.74 186.002 114.525 186.453 114.525C186.883 114.505 187.314 114.701 187.607 115.033L194.437 123.018C194.75 123.311 196.061 124.27 197.177 124.055C197.921 123.918 198.605 123.253 199.193 122.079L203.498 108.458C203.733 107.675 204.574 107.264 205.338 107.499C206.101 107.734 206.531 108.575 206.296 109.338L201.952 123.077C201.952 123.077 201.893 123.214 201.874 123.272C200.836 125.405 199.427 126.638 197.666 126.932C194.887 127.421 192.558 125.249 192.304 124.994L186.55 118.282L180.268 126.404C178.957 127.891 177.626 128.302 176.57 128.302V128.341Z" fill="#05141F"/>
</svg>
