<svg width="240" height="200" viewBox="0 0 240 200" fill="none" xmlns="http://www.w3.org/2000/svg">
<path d="M235.493 9.71252H118.178V104.172H235.493V9.71252Z" fill="white"/>
<path d="M235.493 104.868H118.179C117.794 104.868 117.484 104.557 117.484 104.172V9.71257C117.484 9.3274 117.794 9.01648 118.179 9.01648H235.493C235.878 9.01648 236.188 9.3274 236.188 9.71257V104.172C236.188 104.557 235.878 104.868 235.493 104.868ZM118.874 103.476H234.799V10.4087H118.874V103.476Z" fill="#000C19"/>
<path d="M235.493 9.71252H118.178V43.6167H235.493V9.71252Z" fill="#70D7BF"/>
<path d="M235.493 44.3082H118.179C117.794 44.3082 117.484 43.9973 117.484 43.6121V9.71257C117.484 9.3274 117.794 9.01648 118.179 9.01648H235.493C235.878 9.01648 236.188 9.3274 236.188 9.71257V43.6167C236.188 44.0019 235.878 44.3128 235.493 44.3128V44.3082ZM118.874 42.916H234.799V10.4087H118.874V42.9207V42.916Z" fill="#000C19"/>
<path d="M150.531 30.1636C150.471 29.978 150.429 29.7784 150.429 29.5743C150.429 29.0267 150.763 28.674 151.277 28.674C151.703 28.674 151.981 28.8689 152.166 29.3237C152.546 30.4606 153.644 30.9896 155.047 30.9896C156.585 30.9896 157.683 30.2007 157.683 29.1148C157.683 28.1728 157.044 27.5834 155.423 27.2308L154.098 26.9523C151.68 26.4372 150.582 25.3142 150.582 23.5647C150.582 21.4857 152.402 20.0564 154.983 20.0564C157.072 20.0564 158.721 21.0402 159.189 22.6644C159.23 22.7804 159.254 22.9243 159.254 23.1006C159.254 23.5879 158.911 23.9081 158.424 23.9081C157.971 23.9081 157.693 23.6993 157.503 23.2584C157.09 22.14 156.169 21.662 154.959 21.662C153.542 21.662 152.49 22.3535 152.49 23.4626C152.49 24.3443 153.12 24.9337 154.691 25.2724L156.011 25.5509C158.554 26.0892 159.596 27.1055 159.596 28.8735C159.596 31.1613 157.799 32.5999 154.969 32.5999C152.62 32.5999 151.008 31.5836 150.536 30.1683L150.531 30.1636Z" fill="white"/>
<path d="M161.06 34.5629V24.3164C161.06 23.7364 161.421 23.3837 161.931 23.3837C162.441 23.3837 162.811 23.7364 162.811 24.3164V25.0636H162.844C163.362 24.0473 164.382 23.3976 165.655 23.3976C167.898 23.3976 169.375 25.1657 169.375 27.9639C169.375 30.7622 167.907 32.5396 165.688 32.5396C164.419 32.5396 163.413 31.9177 162.908 30.9339H162.867V34.5582C162.867 35.1569 162.487 35.5235 161.959 35.5235C161.431 35.5235 161.051 35.1522 161.051 34.5582L161.06 34.5629ZM167.518 27.9686C167.518 26.117 166.619 24.9336 165.183 24.9336C163.747 24.9336 162.867 26.1448 162.867 27.9686C162.867 29.7923 163.789 31.0035 165.183 31.0035C166.577 31.0035 167.518 29.8248 167.518 27.9686Z" fill="white"/>
<path d="M170.381 28.0103C170.381 25.2028 171.974 23.3837 174.476 23.3837C176.824 23.3837 178.445 25.0821 178.445 27.4952C178.445 28.0846 178.112 28.4187 177.547 28.4187H172.206V28.4605C172.206 30.0754 173.114 31.0824 174.554 31.0824C175.546 31.0824 176.166 30.739 176.838 29.8202C177.033 29.5928 177.218 29.5 177.477 29.5C177.913 29.5 178.232 29.7877 178.232 30.2378C178.232 30.3817 178.181 30.5487 178.107 30.7251C177.528 31.8852 176.245 32.5488 174.596 32.5488C171.932 32.5488 170.371 30.8597 170.371 27.9964L170.381 28.0103ZM176.634 27.1518C176.593 25.7643 175.726 24.8455 174.466 24.8455C173.206 24.8455 172.308 25.7689 172.215 27.1518H176.63H176.634Z" fill="white"/>
<path d="M179.456 27.9873C179.456 25.1843 181.091 23.3884 183.611 23.3884C185.315 23.3884 186.775 24.298 187.164 25.5324C187.215 25.6762 187.247 25.8247 187.247 25.9547C187.247 26.4187 186.918 26.7018 186.474 26.7018C186.089 26.7018 185.871 26.5487 185.649 26.1449C185.195 25.305 184.574 24.9013 183.643 24.9013C182.226 24.9013 181.299 26.0893 181.299 27.9733C181.299 29.8574 182.24 31.0454 183.643 31.0454C184.625 31.0454 185.223 30.6092 185.649 29.8435C185.899 29.4073 186.094 29.2541 186.487 29.2541C186.932 29.2541 187.261 29.5558 187.261 30.0106C187.261 30.1544 187.229 30.3029 187.159 30.4793C186.696 31.6997 185.26 32.5629 183.625 32.5629C181.095 32.5629 179.451 30.8041 179.451 27.9873H179.456Z" fill="white"/>
<path d="M188.651 21.1656C188.651 20.5855 189.119 20.1307 189.702 20.1307C190.286 20.1307 190.759 20.5855 190.759 21.1656C190.759 21.7457 190.291 22.2097 189.702 22.2097C189.114 22.2097 188.651 21.741 188.651 21.1656ZM188.795 31.593V24.349C188.795 23.7597 189.156 23.3838 189.702 23.3838C190.249 23.3838 190.61 23.7643 190.61 24.349V31.593C190.61 32.1731 190.249 32.5536 189.702 32.5536C189.156 32.5536 188.795 32.1731 188.795 31.593Z" fill="white"/>
<path d="M192.101 29.8805C192.101 28.3352 193.292 27.3839 195.386 27.2632L197.813 27.1193V26.4372C197.813 25.4534 197.151 24.864 196.043 24.864C195.173 24.864 194.589 25.1749 194.089 25.9824C193.903 26.2516 193.667 26.3676 193.352 26.3676C192.898 26.3676 192.569 26.0659 192.569 25.6112C192.569 25.4255 192.62 25.226 192.727 25.0218C193.19 24.0194 194.524 23.3837 196.108 23.3837C198.248 23.3837 199.62 24.5206 199.62 26.2933V31.6346C199.62 32.2054 199.258 32.5535 198.749 32.5535C198.239 32.5535 197.901 32.224 197.883 31.6857V30.9386H197.841C197.327 31.9224 196.206 32.5442 195.052 32.5442C193.324 32.5442 192.106 31.4676 192.106 29.8759L192.101 29.8805ZM197.808 29.0823V28.3862L195.627 28.5208C194.543 28.5951 193.931 29.0777 193.931 29.8341C193.931 30.5905 194.58 31.1103 195.543 31.1103C196.812 31.1103 197.808 30.2378 197.808 29.0823Z" fill="white"/>
<path d="M201.436 31.5927V21.0539C201.436 20.4552 201.816 20.0933 202.344 20.0933C202.872 20.0933 203.252 20.4552 203.252 21.0539V31.5927C203.252 32.1913 202.872 32.5533 202.344 32.5533C201.816 32.5533 201.436 32.1913 201.436 31.5927Z" fill="white"/>
<path d="M138.537 19.7412C137.226 19.7412 136.161 18.6042 136.161 17.2074V3.22993C136.161 1.82847 137.226 0.696167 138.537 0.696167C139.848 0.696167 140.914 1.83311 140.914 3.22993V17.2074C140.914 18.6089 139.848 19.7412 138.537 19.7412Z" fill="white"/>
<path d="M138.538 20.4372C136.842 20.4372 135.466 18.9893 135.466 17.2073V3.22985C135.466 1.44787 136.842 0 138.538 0C140.233 0 141.609 1.44787 141.609 3.22985V17.2073C141.609 18.9893 140.233 20.4372 138.538 20.4372ZM138.538 1.39218C137.611 1.39218 136.856 2.2182 136.856 3.22985V17.2073C136.856 18.219 137.611 19.045 138.538 19.045C139.464 19.045 140.219 18.219 140.219 17.2073V3.22985C140.219 2.2182 139.464 1.39218 138.538 1.39218Z" fill="#000C19"/>
<path d="M215.134 19.9777C213.823 19.9777 212.757 18.8176 212.757 17.3836V3.52683C212.757 2.09289 213.823 0.932739 215.134 0.932739C216.445 0.932739 217.51 2.09289 217.51 3.52683V17.3836C217.51 18.8176 216.445 19.9777 215.134 19.9777Z" fill="white"/>
<path d="M215.133 20.6736C213.438 20.6736 212.062 19.1979 212.062 17.3834V3.52663C212.062 1.71216 213.438 0.23645 215.133 0.23645C216.829 0.23645 218.205 1.71216 218.205 3.52663V17.3834C218.205 19.1979 216.829 20.6736 215.133 20.6736ZM215.133 1.62863C214.207 1.62863 213.452 2.47786 213.452 3.52663V17.3834C213.452 18.4276 214.207 19.2814 215.133 19.2814C216.06 19.2814 216.815 18.4322 216.815 17.3834V3.52663C216.815 2.4825 216.06 1.62863 215.133 1.62863Z" fill="#000C19"/>
<path d="M220.684 74.3378H135.55V77.3727H220.684V74.3378Z" fill="#70D7BF"/>
<path d="M136.806 75.6927V64.2861C136.806 63.6179 137.195 63.2095 137.843 63.2095H141.827C144.426 63.2095 146.237 65.0054 146.237 67.6181C146.237 70.2308 144.389 72.0452 141.762 72.0452H138.885V75.6974C138.885 76.3656 138.487 76.774 137.848 76.774C137.209 76.774 136.81 76.3656 136.81 75.6974L136.806 75.6927ZM141.271 70.2911C143.082 70.2911 144.111 69.3166 144.111 67.6227C144.111 65.9289 143.082 64.9637 141.28 64.9637H138.885V70.2911H141.271Z" fill="#000C19"/>
<path d="M147.817 75.7392V67.6785C147.817 67.066 148.206 66.6669 148.771 66.6669C149.336 66.6669 149.716 67.066 149.716 67.6785V68.5138H149.762C150.031 67.4186 150.929 66.6808 151.907 66.6808C152.259 66.6808 152.528 66.7643 152.694 66.9221C152.88 67.0706 152.963 67.3119 152.963 67.6275C152.963 67.943 152.861 68.1751 152.667 68.3328C152.463 68.5092 152.166 68.5927 151.749 68.5927C150.374 68.602 149.818 69.5208 149.818 70.7413V75.7346C149.818 76.3843 149.41 76.7926 148.817 76.7926C148.224 76.7926 147.817 76.3843 147.817 75.7346V75.7392Z" fill="#000C19"/>
<path d="M153.2 71.7344C153.2 68.5927 155.048 66.6669 157.832 66.6669C160.616 66.6669 162.464 68.5927 162.464 71.7344C162.464 74.8761 160.625 76.8112 157.832 76.8112C155.039 76.8112 153.2 74.8854 153.2 71.7344ZM160.422 71.7344C160.422 69.5672 159.402 68.3236 157.832 68.3236C156.262 68.3236 155.243 69.5672 155.243 71.7344C155.243 73.9016 156.262 75.1545 157.832 75.1545C159.402 75.1545 160.422 73.9108 160.422 71.7344Z" fill="#000C19"/>
<path d="M164.011 75.7392V67.6878C164.011 67.0567 164.4 66.6669 164.965 66.6669C165.53 66.6669 165.92 67.0474 165.92 67.6878V68.486H165.966C166.401 67.4001 167.425 66.6715 168.741 66.6715C170.056 66.6715 171.08 67.3676 171.469 68.5881H171.515C172.016 67.4001 173.169 66.6715 174.559 66.6715C176.491 66.6715 177.751 67.9523 177.751 69.8967V75.7346C177.751 76.375 177.343 76.7926 176.741 76.7926C176.139 76.7926 175.74 76.375 175.74 75.7346V70.3793C175.74 69.1171 175.064 68.3885 173.873 68.3885C172.683 68.3885 171.858 69.2702 171.858 70.5093V75.7346C171.858 76.375 171.478 76.7926 170.876 76.7926C170.274 76.7926 169.894 76.375 169.894 75.7346V70.2308C169.894 69.1078 169.181 68.3885 168.046 68.3885C166.86 68.3885 166.012 69.3166 166.012 70.5742V75.7346C166.012 76.375 165.614 76.7926 165.012 76.7926C164.409 76.7926 164.011 76.375 164.011 75.7346V75.7392Z" fill="#000C19"/>
<path d="M179.257 71.7344C179.257 68.5927 181.105 66.6669 183.889 66.6669C186.673 66.6669 188.521 68.5927 188.521 71.7344C188.521 74.8761 186.682 76.8112 183.889 76.8112C181.096 76.8112 179.257 74.8854 179.257 71.7344ZM186.478 71.7344C186.478 69.5672 185.459 68.3236 183.889 68.3236C182.319 68.3236 181.299 69.5672 181.299 71.7344C181.299 73.9016 182.319 75.1545 183.889 75.1545C185.459 75.1545 186.478 73.9108 186.478 71.7344Z" fill="#000C19"/>
<path d="M190.657 68.43H189.953C189.434 68.43 189.119 68.133 189.119 67.6411C189.119 67.1492 189.434 66.843 189.953 66.843H190.657V65.3905C190.657 64.7501 191.055 64.3231 191.667 64.3231C192.278 64.3231 192.667 64.7501 192.667 65.3905V66.843H193.807C194.326 66.843 194.641 67.1492 194.641 67.6411C194.641 68.133 194.326 68.43 193.807 68.43H192.667V73.8317C192.667 74.6113 192.936 74.964 193.659 75.0197L193.816 75.029C194.391 75.0847 194.678 75.3167 194.678 75.79C194.678 76.3933 194.214 76.6996 193.232 76.6996H193.131C191.486 76.6996 190.652 75.8921 190.652 74.2726V68.4254L190.657 68.43Z" fill="#000C19"/>
<path d="M196.077 64.2117C196.077 63.5712 196.595 63.0701 197.235 63.0701C197.874 63.0701 198.402 63.5712 198.402 64.2117C198.402 64.8521 197.883 65.3625 197.235 65.3625C196.586 65.3625 196.077 64.8428 196.077 64.2117ZM196.234 75.7389V67.7339C196.234 67.0842 196.633 66.6665 197.235 66.6665C197.837 66.6665 198.235 67.0842 198.235 67.7339V75.7389C198.235 76.3793 197.837 76.7969 197.235 76.7969C196.633 76.7969 196.234 76.3793 196.234 75.7389Z" fill="#000C19"/>
<path d="M199.857 71.7344C199.857 68.5927 201.705 66.6669 204.489 66.6669C207.273 66.6669 209.121 68.5927 209.121 71.7344C209.121 74.8761 207.282 76.8112 204.489 76.8112C201.696 76.8112 199.857 74.8854 199.857 71.7344ZM207.079 71.7344C207.079 69.5672 206.059 68.3236 204.489 68.3236C202.919 68.3236 201.9 69.5672 201.9 71.7344C201.9 73.9016 202.919 75.1545 204.489 75.1545C206.059 75.1545 207.079 73.9108 207.079 71.7344Z" fill="#000C19"/>
<path d="M210.669 75.7392V67.6785C210.669 67.066 211.039 66.6669 211.623 66.6669C212.207 66.6669 212.596 67.066 212.596 67.6878V68.4581H212.642C213.17 67.3444 214.194 66.6715 215.695 66.6715C217.849 66.6715 219.081 68.0451 219.081 70.2865V75.7346C219.081 76.3936 218.664 76.7926 218.071 76.7926C217.478 76.7926 217.07 76.3936 217.07 75.7346V70.6763C217.07 69.2053 216.385 68.3978 214.991 68.3978C213.596 68.3978 212.67 69.4002 212.67 70.9177V75.7346C212.67 76.3936 212.253 76.7926 211.669 76.7926C211.085 76.7926 210.669 76.3936 210.669 75.7346V75.7392Z" fill="#000C19"/>
<path d="M147.432 82.6951C147.432 83.8924 147.432 85.7626 145.042 86.4726L138.158 88.5701V91.1781C138.149 93.6841 136.551 95.9069 134.184 96.7051L126.503 99.1275L126.105 91.1781L136.338 85.6094L147.432 82.6951Z" fill="white"/>
<path d="M126.503 99.824C126.364 99.824 126.225 99.7822 126.105 99.6987C125.929 99.5734 125.818 99.3785 125.808 99.1604L125.41 91.2111C125.396 90.9419 125.54 90.6913 125.771 90.566L136.004 84.9973C136.055 84.9695 136.106 84.9509 136.162 84.937L147.256 82.0227C147.465 81.967 147.687 82.0134 147.858 82.1433C148.03 82.2733 148.127 82.4775 148.127 82.6956C148.127 83.8604 148.127 86.2827 145.241 87.1413L138.853 89.0857V91.1786C138.844 93.9815 137.06 96.4688 134.406 97.3645L126.712 99.7915C126.642 99.8147 126.573 99.824 126.503 99.824ZM126.818 91.5823L127.152 98.1952L133.975 96.0419C136.05 95.3412 137.454 93.3829 137.459 91.1786V88.5706C137.463 88.2643 137.662 87.9951 137.954 87.907L144.838 85.8094C146.209 85.401 146.594 84.6168 146.7 83.6098L136.592 86.2642L126.818 91.5869V91.5823Z" fill="#000C19"/>
<path d="M22.3264 200H81.3149L77.66 167.943L26.8013 170.607L25.1938 185.503C24.7352 189.754 24.4017 189.805 22.3264 200Z" fill="#000C19"/>
<path d="M127.142 89.1735L100.33 98.747L84.9371 85.113C80.9579 82.3704 76.3533 80.6719 71.5496 80.1661L52.6542 78.1753L40.9297 81.9435C35.3153 83.7486 30.5717 87.5771 27.6163 92.6911L5.12617 144.243C3.34735 148.322 4.15338 153.07 7.17367 156.332C10.5136 159.933 15.8084 160.931 20.223 158.787L22.9978 157.437L20.8716 171.252L83.7744 167.307C75.1582 140.03 84.6684 117.351 84.6684 117.351L94.4427 120.372C98.76 121.291 103.263 120.488 107.001 118.135L127.837 102.195L127.142 89.1735Z" fill="white"/>
<path d="M20.8716 171.948C20.677 171.948 20.4917 171.864 20.3574 171.72C20.2138 171.563 20.1536 171.354 20.1814 171.145L22.1084 158.643L20.5241 159.414C15.8038 161.706 10.231 160.662 6.6595 156.81C3.44927 153.344 2.59229 148.304 4.48229 143.97L26.9724 92.4127C26.9817 92.3895 26.9956 92.3663 27.0095 92.3431C30.0529 87.0714 34.9215 83.1454 40.712 81.2845L52.4365 77.5164C52.5291 77.4885 52.6264 77.4792 52.7237 77.4885L71.6191 79.4793C76.5247 79.9945 81.2636 81.7486 85.3262 84.5469C85.3494 84.5608 85.3725 84.5794 85.3911 84.5979L100.479 97.9582L126.902 88.5239C127.11 88.4496 127.337 88.4775 127.518 88.5981C127.698 88.7188 127.814 88.9229 127.828 89.1411L128.523 102.163C128.537 102.395 128.435 102.613 128.25 102.752L107.413 118.692C107.413 118.692 107.381 118.716 107.362 118.729C103.453 121.194 98.8064 122.02 94.2898 121.054C94.2713 121.054 94.2481 121.045 94.2296 121.04L85.0714 118.21C83.691 121.931 76.7517 142.796 84.4276 167.098C84.4924 167.303 84.46 167.525 84.3395 167.702C84.2191 167.878 84.0245 167.989 83.8114 168.003L20.9086 171.948C20.9086 171.948 20.8808 171.948 20.8669 171.948H20.8716ZM22.9978 156.741C23.1461 156.741 23.2897 156.787 23.4101 156.875C23.6186 157.028 23.7251 157.284 23.6834 157.543L21.6869 170.505L82.8479 166.667C74.7135 139.835 83.9319 117.309 84.0245 117.082C84.1635 116.753 84.5248 116.581 84.8723 116.688L94.6187 119.699C98.7647 120.576 103.017 119.815 106.607 117.565L127.124 101.866L126.499 90.1434L100.567 99.4014C100.33 99.4849 100.062 99.4339 99.8718 99.2668L84.5109 85.6606C80.6475 83.0062 76.1403 81.3449 71.4801 80.8576L52.7283 78.8807L41.1428 82.6025C35.6951 84.352 31.1137 88.0459 28.2417 93.002L5.76082 144.522C4.09317 148.346 4.84825 152.796 7.68325 155.859C10.8333 159.26 15.7528 160.184 19.9219 158.161L22.6967 156.81C22.794 156.764 22.8959 156.741 22.9978 156.741Z" fill="#000C19"/>
<path d="M62.2292 46.132C65.6247 45.4081 69.0387 47.2829 70.2478 50.5453L70.6879 51.7286C70.9982 52.5593 71.253 53.4085 71.5124 54.2577C72.022 55.9237 72.8929 57.4597 74.0649 58.7591L75.0145 59.8079C75.311 60.1327 75.1396 60.6617 74.7088 60.7499L74.139 60.8706C73.4256 61.0237 72.9021 61.6363 72.8697 62.3695L72.6474 66.9126C72.4991 69.9708 70.7064 72.7087 67.964 74.0638C65.3931 75.3353 63.6652 77.818 63.3317 80.6256C63.2715 81.1407 63.3132 82.1755 63.3132 82.1755L59.2645 92.1621L50.6251 81.5491L51.5145 79.9295" fill="white"/>
<path d="M59.2595 92.8581C59.051 92.8581 58.8518 92.7653 58.7221 92.6029L50.0828 81.9898C49.9021 81.7717 49.8743 81.4608 50.0133 81.2149L50.9027 79.5953C51.088 79.2565 51.5096 79.1359 51.8477 79.3215C52.1859 79.5071 52.3063 79.9294 52.121 80.2682L51.454 81.4794L59.0557 90.8162L62.6087 82.0548C62.5994 81.73 62.5855 80.9921 62.6365 80.5466C63.0024 77.4699 64.8785 74.8155 67.6533 73.4419C70.1641 72.1982 71.8132 69.6876 71.9475 66.8847L72.1699 62.3416C72.2208 61.2974 72.9713 60.4157 73.9904 60.1976L74.3517 60.1187L73.5457 59.2277C72.3181 57.868 71.3824 56.2206 70.845 54.4665L70.808 54.3412C70.5671 53.5569 70.3216 52.7448 70.0344 51.9745L69.5943 50.7911C68.5103 47.8768 65.4066 46.1691 62.3724 46.8188C62.0018 46.8977 61.6266 46.661 61.5479 46.2851C61.4691 45.9092 61.7054 45.538 62.0806 45.4591C65.7819 44.6656 69.5711 46.7538 70.896 50.3085L71.336 51.4919C71.6372 52.304 71.8919 53.1346 72.1374 53.9375L72.1745 54.0628C72.6516 55.622 73.4855 57.0884 74.5787 58.2996L75.5283 59.3484C75.8341 59.6872 75.936 60.1512 75.7924 60.5921C75.6534 61.0283 75.3013 61.3485 74.852 61.4413L74.2822 61.562C73.8792 61.6501 73.5781 61.9982 73.5596 62.4112L73.3372 66.9543C73.1751 70.2631 71.2341 73.2284 68.2694 74.6948C65.9162 75.8596 64.3273 78.1103 64.0169 80.7183C63.9706 81.0942 63.9891 81.8878 64.003 82.1615C64.003 82.259 63.9891 82.3611 63.9521 82.4493L59.9034 92.4358C59.8107 92.6632 59.6069 92.8256 59.3614 92.8628C59.329 92.8674 59.2919 92.872 59.2595 92.872V92.8581Z" fill="#000C19"/>
<path d="M67.4318 54.8841C68.3953 54.6799 68.84 56.7449 67.8719 56.9491C66.9083 57.1533 66.4636 55.0882 67.4318 54.8841Z" fill="#000C19"/>
<path d="M72.694 65.9057C72.694 65.9057 70.9661 66.444 68.8908 65.3024Z" fill="white"/>
<path d="M71.6236 66.7271C70.8314 66.7271 69.7382 66.5646 68.5523 65.915C68.2141 65.7293 68.0937 65.307 68.279 64.9683C68.4643 64.6295 68.8858 64.5089 69.224 64.6945C70.9889 65.6644 72.4296 65.256 72.4898 65.2421C72.8511 65.1353 73.2402 65.3395 73.356 65.7061C73.4672 66.0727 73.2634 66.4579 72.9021 66.5739C72.8604 66.5879 72.3786 66.7317 71.6282 66.7317L71.6236 66.7271Z" fill="#000C19"/>
<path d="M69.2475 52.5365C69.2475 52.5365 67.3899 51.3995 65.3656 52.8613Z" fill="white"/>
<path d="M65.3649 53.5524C65.1472 53.5524 64.9341 53.4503 64.7998 53.2647C64.5774 52.9538 64.6469 52.5175 64.9573 52.2948C67.3337 50.5824 69.5201 51.8864 69.6082 51.9421C69.9371 52.1417 70.039 52.5732 69.8398 52.8981C69.6406 53.2229 69.2144 53.3296 68.8901 53.1301C68.816 53.0883 67.3754 52.267 65.7726 53.4225C65.6475 53.5106 65.5085 53.5524 65.3649 53.5524Z" fill="#000C19"/>
<path d="M73.2629 139.728L41.5405 142.517C40.5538 142.606 39.683 141.872 39.5996 140.884L35.4675 92.501C35.3841 91.5172 36.1114 90.6494 37.0935 90.5613L68.8159 87.7723C69.8025 87.6841 70.6734 88.4173 70.7568 89.4058L74.8889 137.789C74.9723 138.772 74.245 139.64 73.2629 139.728Z" fill="#70D7BF"/>
<path d="M41.379 143.218C40.7953 143.218 40.2348 143.014 39.7854 142.633C39.2759 142.206 38.9655 141.603 38.9099 140.939L34.7779 92.5564C34.6621 91.1921 35.6765 89.9855 37.0385 89.8648L68.7609 87.0759C69.4233 87.0202 70.0672 87.2197 70.5767 87.6513C71.0863 88.0829 71.3967 88.6815 71.4523 89.3451L75.5843 137.728C75.7001 139.092 74.6856 140.299 73.3237 140.419L41.6013 143.208C41.5272 143.213 41.4531 143.218 41.379 143.218ZM68.9786 88.4541C68.9462 88.4541 68.9137 88.4541 68.8813 88.4541L37.1589 91.2431C36.5567 91.2942 36.112 91.8278 36.1629 92.4311L40.295 140.814C40.3182 141.106 40.4571 141.371 40.6795 141.561C40.9065 141.751 41.1844 141.84 41.4809 141.816L73.2033 139.027C73.8055 138.976 74.2502 138.443 74.1993 137.839L70.0672 89.4565C70.044 89.1641 69.905 88.8996 69.6781 88.7093C69.4789 88.5423 69.2334 88.4541 68.9739 88.4541H68.9786Z" fill="#000C19"/>
<path d="M29.4741 119.936L34.3103 113.968C36.1447 111.704 39.0863 110.646 41.9398 111.23L47.9619 112.455C48.8235 112.632 49.3145 113.541 48.9902 114.358L48.5919 115.36C48.0638 116.688 47.0261 117.746 45.7059 118.298L38.2432 121.407C38.2432 123.273 37.011 124.911 35.2229 125.426L32.4064 126.238L29.4695 119.936H29.4741Z" fill="white"/>
<path d="M32.411 126.939C32.147 126.939 31.8968 126.786 31.781 126.535L28.8441 120.233C28.7329 119.992 28.7653 119.709 28.9321 119.5L33.7683 113.532C35.7741 111.059 38.9565 109.912 42.0741 110.548L48.0962 111.773C48.7076 111.899 49.2311 112.284 49.5276 112.836C49.824 113.388 49.8611 114.033 49.6341 114.618L49.2357 115.62C48.6428 117.115 47.4569 118.326 45.9746 118.943L38.9148 121.885C38.7203 123.848 37.3352 125.542 35.4174 126.099L32.6009 126.911C32.5361 126.93 32.4712 126.939 32.4064 126.939H32.411ZM30.2894 120.038L32.7909 125.407L35.0329 124.762C36.5153 124.335 37.5483 122.957 37.5483 121.412C37.5483 121.129 37.7151 120.878 37.9745 120.771L45.4372 117.662C46.5768 117.189 47.4893 116.261 47.9433 115.11L48.3417 114.108C48.4204 113.908 48.4065 113.695 48.3046 113.504C48.2027 113.314 48.0313 113.184 47.8182 113.142L41.7962 111.917C39.1882 111.388 36.5245 112.344 34.8476 114.414L30.2894 120.043V120.038Z" fill="#000C19"/>
<path d="M130.617 91.526C131.58 91.1641 132.539 90.8021 133.503 90.4401C133.956 90.2684 134.471 89.9714 134.952 90.0225C135.735 90.1014 135.805 90.2824 135.985 90.9692C136.203 91.7859 135.115 92.2778 134.35 92.6398C132.692 93.4287 131.455 95.0529 131.135 96.8674" fill="white"/>
<path d="M130.802 92.1946C131.909 91.777 133.03 91.3825 134.123 90.9277C134.499 90.7746 134.823 90.6493 135.221 90.7699C135.231 90.7699 135.231 90.7699 135.221 90.7607C135.217 90.756 135.198 90.7421 135.198 90.7421C135.272 90.872 135.198 90.7143 135.235 90.8349C135.263 90.9231 135.291 91.0159 135.314 91.1041C135.319 91.1319 135.333 91.1737 135.333 91.1783C135.333 91.1969 135.323 91.2062 135.286 91.2619C135.263 91.2943 135.11 91.4336 135.018 91.4985C134.675 91.7305 134.29 91.893 133.92 92.0786C133.114 92.4823 132.386 93.0856 131.821 93.791C131.154 94.6356 130.672 95.6147 130.473 96.6774C130.404 97.0487 130.575 97.4292 130.96 97.5359C131.298 97.6287 131.747 97.4199 131.817 97.0487C131.993 96.1066 132.396 95.2249 133.035 94.5056C133.345 94.1529 133.697 93.842 134.091 93.5868C134.485 93.3316 134.943 93.1459 135.365 92.9185C136.264 92.4313 136.931 91.6888 136.625 90.6122C136.509 90.2038 136.338 89.814 135.958 89.582C135.541 89.3267 134.967 89.2803 134.499 89.3546C133.846 89.4567 133.197 89.814 132.576 90.046C131.867 90.3152 131.154 90.5797 130.445 90.8488C130.093 90.9788 129.852 91.3175 129.959 91.7073C130.052 92.0461 130.459 92.3245 130.816 92.1946H130.802Z" fill="#000C19"/>
<path d="M38.4046 117.722C40.7161 117.889 43.0184 118.135 45.3114 118.465Z" fill="white"/>
<path d="M38.4048 118.419C40.6515 118.581 42.8935 118.818 45.1263 119.138C45.4969 119.189 45.8721 119.045 45.9833 118.651C46.0713 118.326 45.8721 117.848 45.4969 117.792C43.1437 117.458 40.7812 117.198 38.4094 117.022C38.0342 116.994 37.7145 117.361 37.7145 117.718C37.7145 118.117 38.0342 118.386 38.4094 118.414L38.4048 118.419Z" fill="#000C19"/>
<path d="M23.0021 157.437L35.4585 131.751L32.4105 126.243" fill="white"/>
<path d="M23.0025 158.133C22.9006 158.133 22.7987 158.11 22.7014 158.063C22.354 157.896 22.2104 157.479 22.3818 157.135L34.6854 131.774L31.8133 126.581C31.628 126.247 31.7484 125.82 32.082 125.635C32.4155 125.449 32.8417 125.57 33.027 125.904L36.0751 131.412C36.1862 131.612 36.1909 131.849 36.0936 132.053L23.6325 157.738C23.5121 157.984 23.2666 158.128 23.0072 158.128L23.0025 158.133Z" fill="#000C19"/>
<path d="M13.9693 134.93C13.784 134.93 13.5941 134.856 13.4598 134.707C13.2003 134.424 13.2189 133.983 13.5015 133.723L29.006 119.426C29.2885 119.166 29.7286 119.184 29.988 119.467C30.2474 119.751 30.2289 120.191 29.9463 120.451L14.4418 134.749C14.3075 134.874 14.1407 134.935 13.9693 134.935V134.93Z" fill="#000C19"/>
<path d="M50.338 49.5289C50.1342 49.7285 49.935 49.9141 49.7544 50.0951C48.9113 50.9118 48.1886 51.8399 47.554 52.833C47.5308 52.8655 47.5123 52.898 47.4891 52.9305C43.0189 59.7707 41.9905 68.3094 44.8765 75.9571L45.5482 77.7344C48.8696 78.8621 57.7313 75.8782 57.7313 75.8782C57.5552 73.6182 58.1204 68.8663 59.1719 63.8173C58.5512 63.5667 57.9166 62.9727 57.4765 62.1513C56.7446 60.7824 56.828 59.302 57.6664 58.8519C58.3566 58.4806 59.348 58.9261 60.0845 59.8635C61.6502 53.7055 63.8413 47.9326 66.19 46.494C60.7701 44.2804 54.5535 45.4684 50.3334 49.5336L50.338 49.5289Z" fill="#000C19"/>
<path d="M47.4799 78.6765C46.6553 78.6765 45.9141 78.593 45.3258 78.3934C45.1313 78.3285 44.9738 78.1753 44.8996 77.9804L44.228 76.2031C41.3003 68.4394 42.3009 59.599 46.9101 52.55L46.9703 52.4572C47.6883 51.3341 48.4434 50.3967 49.2726 49.5939L49.8563 49.0278C54.2709 44.7816 60.7886 43.5333 66.454 45.849C66.6949 45.9464 66.8617 46.1738 66.8848 46.4383C66.908 46.7028 66.7783 46.9534 66.5559 47.088C64.6984 48.2249 62.5304 53.0651 60.7608 60.0352C60.696 60.2905 60.4922 60.49 60.2328 60.5457C59.9733 60.6014 59.7047 60.5039 59.5425 60.2951C58.9681 59.5665 58.3057 59.2974 58 59.4645C57.6294 59.664 57.4858 60.6803 58.0972 61.8172C58.4447 62.4623 58.945 62.9681 59.436 63.1676C59.7464 63.2929 59.927 63.6271 59.8575 63.9566C58.8153 68.9545 58.2547 73.6136 58.4308 75.8225C58.4539 76.1427 58.2594 76.4351 57.9583 76.5372C57.6479 76.6393 51.5471 78.6765 47.4845 78.6765H47.4799ZM46.0716 77.159C48.6333 77.753 54.3821 76.217 57.0086 75.3817C56.9438 72.9871 57.4626 68.7364 58.3844 64.1886C57.7915 63.8081 57.2542 63.2094 56.865 62.4762C55.9386 60.7406 56.1424 58.8797 57.3375 58.2347C58.0417 57.8588 58.9125 57.9887 59.7093 58.5456C60.7562 54.6614 62.5489 49.1763 64.8281 46.7399C59.9409 45.2039 54.5535 46.4383 50.8152 50.0301L50.2315 50.5916C49.4811 51.3156 48.7955 52.1694 48.133 53.2043L48.0682 53.3064C43.7045 59.9842 42.7549 68.3605 45.525 75.7065L46.0716 77.1544V77.159Z" fill="#000C19"/>
<path d="M59.2227 63.9055C59.6952 64.1004 60.2279 64.2396 60.7143 64.0772C61.2007 63.9148 61.576 63.3533 61.3721 62.8799" fill="white"/>
<path d="M59.042 64.5784C59.7369 64.8615 60.58 64.9915 61.2563 64.597C61.5481 64.4253 61.8168 64.1562 61.9558 63.8452C62.1179 63.4925 62.1966 63.0703 62.0438 62.699C61.9697 62.5227 61.8955 62.3834 61.7241 62.2814C61.5759 62.1932 61.3536 62.1561 61.1868 62.2117C61.02 62.2674 60.8579 62.3695 60.7699 62.5319C60.6819 62.6944 60.6309 62.8986 60.7004 63.0703C60.7282 63.1352 60.7421 63.1956 60.7513 63.2652L60.7282 63.0795C60.7328 63.1352 60.7328 63.1909 60.7282 63.2466L60.7513 63.061C60.7421 63.1352 60.7236 63.2095 60.6958 63.2837L60.7652 63.1167C60.7282 63.2095 60.6772 63.293 60.617 63.3719L60.7236 63.2327C60.668 63.3023 60.6031 63.3673 60.5336 63.4229L60.6726 63.3162C60.5985 63.3719 60.5244 63.4183 60.441 63.4554L60.6077 63.3858C60.4966 63.4322 60.3854 63.4601 60.265 63.474L60.4502 63.4508C60.2974 63.4693 60.1491 63.4647 59.9963 63.4461L60.1816 63.4693C59.9129 63.4322 59.6535 63.344 59.4033 63.242C59.2458 63.177 59.0049 63.2327 58.866 63.3116C58.727 63.3905 58.5834 63.5622 58.5463 63.7292C58.5047 63.9056 58.5139 64.1051 58.6158 64.2675C58.7177 64.43 58.8521 64.5135 59.0327 64.5877L59.042 64.5784Z" fill="#000C19"/>
<path d="M64.8976 46.3638C66.2317 47.1574 67.2323 48.4985 67.6075 50.0067Z" fill="white"/>
<path d="M64.5451 46.9628C64.7026 47.0556 64.8601 47.1577 65.0083 47.2691C65.0268 47.283 65.1704 47.3991 65.0454 47.297C65.0732 47.3202 65.101 47.3434 65.1334 47.3666C65.2029 47.4269 65.2724 47.4872 65.3418 47.5476C65.4808 47.6728 65.6105 47.8028 65.7356 47.9374C65.7958 48.007 65.8607 48.0766 65.9163 48.1462C65.9533 48.188 65.9857 48.2344 66.0228 48.2761C65.9626 48.2019 65.9904 48.2344 66.0321 48.29C66.2498 48.587 66.4443 48.9072 66.6065 49.2367C66.625 49.2785 66.6482 49.3203 66.6667 49.362C66.676 49.3806 66.7362 49.5244 66.6991 49.4316C66.6621 49.3388 66.7177 49.4827 66.7269 49.5012C66.7455 49.543 66.7594 49.5894 66.7732 49.6312C66.8381 49.8122 66.8937 49.9978 66.9446 50.1881C67.0327 50.5407 67.4449 50.7867 67.8016 50.6753C68.1583 50.5639 68.3853 50.1973 68.288 49.8168C67.8572 48.1323 66.7455 46.6519 65.2585 45.7563C64.9481 45.5707 64.4802 45.6774 64.3088 46.0069C64.1374 46.3364 64.2255 46.7587 64.559 46.9582L64.5451 46.9628Z" fill="#000C19"/>
<path d="M39.7112 114.381L48.1884 115.537" stroke="#000C19" stroke-width="3" stroke-linecap="round" stroke-linejoin="round"/>
</svg>
