<svg width="480" height="320" viewBox="0 0 480 320" fill="none" xmlns="http://www.w3.org/2000/svg">
<path d="M283.416 165.129L293.463 198.982C295.007 204.181 295.73 209.595 295.613 215.009L290.042 296.611H189.97L201.462 199.724V167.865L283.416 165.129Z" fill="#000C19"/>
<path d="M290.042 299.563H189.97C189.129 299.563 188.328 299.211 187.781 298.585C187.233 297.96 186.96 297.119 187.057 296.298L198.531 199.588V167.904C198.531 166.321 199.782 165.031 201.365 164.973L283.319 162.236C284.648 162.158 285.84 163.057 286.231 164.328L296.277 198.18C297.919 203.692 298.682 209.38 298.545 215.126L292.974 296.865C292.877 298.409 291.587 299.602 290.042 299.602V299.563ZM193.273 293.699H287.306L292.681 214.813C292.798 209.829 292.114 204.728 290.648 199.803L281.247 168.139L204.394 170.719V199.744C204.394 199.861 204.394 199.978 204.394 200.096L193.292 293.699H193.273Z" fill="#000C19"/>
<path d="M269.074 84.2674L270.5 82.0393C272.259 79.3029 273.393 76.2147 273.823 72.9897C274.038 71.3479 274.253 69.7061 274.566 68.0838L275.015 65.7774C276.169 59.8747 281.192 55.5747 287.094 55.2424C290.319 58.5652 304.451 65.9338 305.369 74.4165C306.444 84.502 305.252 92.5156 313.051 97.9297L316.94 107.077C317.546 114.719 297.414 121.756 297.414 121.756C297.317 120.798 297.18 119.84 296.906 118.922C295.44 113.859 291.492 109.833 286.391 108.289C280.938 106.627 276.814 102.152 275.602 96.5811L273.804 88.3133C273.51 86.9842 272.377 86.007 271.009 85.9483L269.914 85.8897C269.093 85.8506 268.624 84.932 269.074 84.2479V84.2674Z" fill="white"/>
<path d="M297.414 123.241C297.14 123.241 296.866 123.163 296.632 123.007C296.261 122.772 296.006 122.362 295.967 121.912C295.87 120.857 295.713 120.036 295.518 119.332C294.169 114.7 290.612 111.084 285.98 109.696C280.018 107.898 275.503 102.992 274.174 96.8939L272.376 88.6262C272.22 87.9421 271.633 87.4534 270.949 87.4143L269.855 87.3557C268.936 87.3166 268.135 86.8084 267.724 85.9875C267.294 85.1666 267.353 84.2284 267.841 83.4662L269.268 81.238C270.89 78.6971 271.965 75.7848 272.376 72.7943L272.415 72.5207C272.63 70.9766 272.845 69.3739 273.138 67.8103L273.588 65.5039C274.858 58.9757 280.39 54.1675 287.016 53.7962C287.446 53.7571 287.856 53.933 288.149 54.2457C288.911 55.0275 290.495 56.1612 292.332 57.4903C297.805 61.4384 306.092 67.3803 306.835 74.2798C307.05 76.2148 307.167 78.0716 307.284 79.8503C307.792 87.3362 308.144 92.7698 313.891 96.7571C314.125 96.9134 314.301 97.1284 314.399 97.3825L318.288 106.53C318.347 106.686 318.386 106.823 318.405 106.999C319.07 115.521 300.072 122.42 297.902 123.183C297.746 123.241 297.59 123.261 297.414 123.261V123.241ZM270.675 84.4825H271.066C273.08 84.5998 274.8 86.0462 275.23 88.0203L277.028 96.288C278.122 101.331 281.875 105.396 286.82 106.901C292.39 108.582 296.69 112.941 298.332 118.531C298.45 118.922 298.547 119.332 298.625 119.782C305.818 117.006 315.513 111.788 315.493 107.429L311.858 98.9071C305.29 94.138 304.86 87.5903 304.352 80.0457C304.235 78.3062 304.118 76.4884 303.903 74.5925C303.297 69.0025 295.674 63.5103 290.612 59.8748C288.911 58.663 287.524 57.6466 286.546 56.7866C281.523 57.3339 277.419 61.0866 276.441 66.0903L275.992 68.3966C275.699 69.8821 275.503 71.4457 275.288 72.9312L275.249 73.2048C274.8 76.6253 273.568 79.948 271.711 82.8407L270.656 84.4825H270.675Z" fill="#000C19"/>
<path d="M275.19 94.7636C275.19 94.7636 278.533 95.2327 282.012 92.4963Z" fill="white"/>
<path d="M275.776 96.2493C275.307 96.2493 275.034 96.2103 274.995 96.2103C274.193 96.093 273.626 95.3503 273.744 94.5489C273.861 93.7475 274.584 93.1807 275.386 93.298C275.522 93.298 278.22 93.6107 281.112 91.3434C281.757 90.8548 282.676 90.9525 283.165 91.5975C283.673 92.2425 283.556 93.1612 282.911 93.6498C279.998 95.9366 277.106 96.2493 275.776 96.2493Z" fill="#000C19"/>
<path d="M276.303 51.5299C283.398 45.5099 289.966 50.1031 289.966 50.1031C289.966 50.1031 310.801 51.2953 312.345 62.5535L313.049 97.9308C307.889 94.354 303.042 93.9631 300.032 85.8321C300.97 85.4021 301.849 84.4053 302.338 83.1153C303.12 81.0044 302.612 78.874 301.185 78.3462C300.168 77.9749 298.976 78.5026 298.097 79.5971C297.608 77.6621 297.256 75.8053 297.08 74.1244C296.455 68.3585 293.562 63.2376 290.767 59.5044C286.956 57.7258 283.496 58.9376 281.131 60.4035C278.043 62.3385 273.821 60.5012 273.548 56.8658C273.43 55.224 274.114 53.4062 276.323 51.5103L276.303 51.5299Z" fill="#000C19"/>
<path d="M313.048 99.4162C312.755 99.4162 312.462 99.338 312.208 99.1621C310.938 98.2826 309.687 97.5985 308.455 96.9339C304.663 94.8621 301.067 92.9271 298.643 86.3598C298.37 85.6367 298.702 84.8353 299.406 84.5226C299.894 84.3076 300.539 83.6821 300.95 82.6267C301.497 81.1608 301.126 79.9294 300.657 79.7339C300.344 79.6167 299.758 79.8708 299.21 80.5353C298.858 80.9653 298.292 81.1608 297.764 81.0435C297.217 80.9262 296.787 80.5158 296.669 79.9685C296.161 77.9162 295.79 76.0203 295.614 74.3003C295.028 68.808 292.193 63.9412 289.809 60.7162C287.288 59.6608 284.61 59.9735 281.893 61.6739C279.938 62.8858 277.456 63.003 275.404 61.9671C273.469 60.9898 272.238 59.133 272.081 57.0026C271.905 54.6376 273.019 52.4289 275.365 50.4353C281.385 45.3339 287.659 46.9562 290.454 48.6958C293.542 48.9303 312.228 50.8458 313.811 62.3776L314.534 97.9308C314.534 98.478 314.241 98.9862 313.752 99.2598C313.537 99.3771 313.303 99.4358 313.068 99.4358L313.048 99.4162Z" fill="#000C19"/>
<path d="M278.395 72.1502C277.946 72.1502 277.496 71.9352 277.203 71.5443C276.734 70.8993 276.871 69.9807 277.516 69.5116C277.692 69.3943 281.679 66.5016 285.999 69.0816C286.702 69.4921 286.917 70.3911 286.507 71.0948C286.096 71.7984 285.197 72.0134 284.494 71.603C281.874 70.0393 279.353 71.7984 279.255 71.8766C279.001 72.0525 278.689 72.1502 278.395 72.1502Z" fill="#000C19"/>
<path d="M281.053 74.4761C279.294 74.9256 280.232 78.6979 282.011 78.2484C283.77 77.7988 282.832 74.0265 281.053 74.4761Z" fill="#000C19"/>
<path d="M105.671 239.069H254.549L234.319 140.755H85.4417L105.671 239.069Z" fill="#70D7BF"/>
<path d="M254.55 240.535H105.672C104.968 240.535 104.382 240.046 104.245 239.362L84.0155 141.048C83.9178 140.618 84.035 140.169 84.3087 139.837C84.5823 139.504 85.0123 139.289 85.4423 139.289H234.32C235.024 139.289 235.61 139.778 235.747 140.462L255.976 238.776C256.074 239.206 255.957 239.655 255.683 239.987C255.41 240.32 254.98 240.535 254.55 240.535ZM106.864 237.603H252.751L233.128 142.221H87.2405L106.864 237.603Z" fill="#000C19"/>
<path d="M150.314 205.49H141.362L129.303 165.226H138.274L150.314 205.49Z" fill="white"/>
<path d="M165.129 205.49H156.177L146.189 172.126H155.141L165.129 205.49Z" fill="white"/>
<path d="M179.945 205.49H170.993L164.484 183.794H173.456L179.945 205.49Z" fill="white"/>
<path d="M194.76 205.49H185.788L180.804 188.798H189.756L194.76 205.49Z" fill="white"/>
<path d="M209.576 205.49H200.605L197.614 195.463H206.566L209.576 205.49Z" fill="white"/>
<path d="M221.478 211.1H135.107C134.306 211.1 133.641 210.435 133.641 209.634C133.641 208.833 134.306 208.168 135.107 208.168H221.478C222.28 208.168 222.944 208.833 222.944 209.634C222.944 210.435 222.28 211.1 221.478 211.1Z" fill="#05141F"/>
<path d="M212.331 189.287C212.331 189.287 212.233 189.287 212.194 189.287C173.162 185.573 129.888 153.812 129.458 153.48C128.813 152.991 128.677 152.072 129.146 151.427C129.634 150.782 130.553 150.645 131.198 151.115C131.608 151.427 171.208 180.472 208.266 185.847L206.956 184.537C206.389 183.97 206.37 183.032 206.956 182.465C207.523 181.899 208.461 181.879 209.028 182.465L213.367 186.765C213.797 187.195 213.934 187.86 213.66 188.427C213.426 188.935 212.898 189.267 212.331 189.267V189.287Z" fill="#05141F"/>
<path d="M103.758 227.928L195.406 227.107L200.606 238.424L105.966 238.287L103.758 227.928Z" fill="white"/>
<path d="M200.605 239.89L105.966 239.753C105.282 239.753 104.676 239.265 104.539 238.6L102.331 228.241C102.233 227.811 102.331 227.362 102.624 227.01C102.897 226.658 103.308 226.463 103.757 226.463L195.406 225.642C195.973 225.642 196.501 225.974 196.735 226.502L201.934 237.818C202.149 238.268 202.11 238.796 201.836 239.226C201.563 239.636 201.094 239.89 200.605 239.89ZM107.158 236.822L198.318 236.958L194.468 228.593L105.575 229.394L107.158 236.841V236.822Z" fill="#000C19"/>
<path d="M385.112 238.365H83.9161V265.788H385.112V238.365Z" fill="white"/>
<path d="M385.112 267.254H83.9161C83.1147 267.254 82.4502 266.589 82.4502 265.788V238.365C82.4502 237.564 83.1147 236.899 83.9161 236.899H385.112C385.913 236.899 386.577 237.564 386.577 238.365V265.788C386.577 266.589 385.913 267.254 385.112 267.254ZM85.382 264.322H383.646V239.831H85.382V264.322Z" fill="#000C19"/>
<path d="M177.951 282.479C178.889 282.225 179.827 282.01 180.785 281.834L256.484 268.211L279.704 273.488L290.943 298.252H185.788H157.35C161.806 290.59 169.175 284.844 177.97 282.459L177.951 282.479Z" fill="white"/>
<path d="M290.923 299.738H157.329C156.802 299.738 156.313 299.464 156.059 298.995C155.805 298.545 155.805 297.979 156.059 297.529C160.808 289.359 168.451 283.515 177.559 281.072C178.536 280.818 179.513 280.583 180.51 280.407L256.21 266.784C256.405 266.745 256.601 266.745 256.796 266.784L280.016 272.081C280.466 272.179 280.837 272.491 281.032 272.902L292.271 297.666C292.467 298.115 292.447 298.643 292.173 299.073C291.9 299.503 291.431 299.738 290.942 299.738H290.923ZM160.007 296.806H288.655L278.667 274.778L256.464 269.716L181.057 283.28C180.139 283.437 179.24 283.652 178.341 283.886C170.835 285.919 164.405 290.454 160.007 296.786V296.806Z" fill="#000C19"/>
<path d="M225.405 207.503L233.262 212.467L225.796 224.605L214.675 217.471L211.645 219.679C209.143 221.321 206.329 222.494 204.237 220.891C201.833 219.054 203.377 213.816 203.377 213.816C205.058 209.379 209.065 207.17 213.052 205.528C213.052 205.528 218.486 203.261 225.425 207.503H225.405Z" fill="white"/>
<path d="M225.795 226.071C225.522 226.071 225.248 225.993 225.014 225.836L214.733 219.249L212.505 220.872C211.039 221.849 206.739 224.664 203.338 222.064C200.23 219.679 201.774 214.05 201.95 213.405C203.905 208.265 208.361 205.861 212.485 204.18C212.72 204.082 218.7 201.678 226.186 206.252L234.044 211.216C234.728 211.646 234.923 212.545 234.513 213.229L227.046 225.367C226.831 225.699 226.499 225.934 226.128 226.032C226.01 226.051 225.913 226.071 225.795 226.071ZM214.674 216.005C214.948 216.005 215.221 216.083 215.456 216.239L225.326 222.553L231.249 212.917L224.642 208.734C218.485 204.981 213.795 206.799 213.599 206.877C209.885 208.402 206.25 210.356 204.745 214.324C204.374 215.614 203.924 218.8 205.136 219.719C205.566 220.051 206.875 221.048 210.863 218.448L213.834 216.279C214.088 216.083 214.4 216.005 214.694 216.005H214.674Z" fill="#000C19"/>
<path d="M240.357 259.259L252.69 235.492L257.244 274.856C258.573 286.368 268.326 295.047 279.897 295.047H361.617L380.967 162.118C382.413 143.999 370.217 127.62 352.43 123.829L324.461 117.926L258.163 134.207C245.81 138.234 236.155 147.987 232.246 160.379L215.945 234.28L185.395 219.719L174.508 229.433L209.69 264.106C218.955 273.234 234.396 270.791 240.376 259.239L240.357 259.259Z" fill="white"/>
<path d="M361.617 296.513H279.898C267.564 296.513 257.205 287.268 255.778 275.032L251.772 240.437L241.647 259.943C238.578 265.865 233.047 269.853 226.46 270.889C219.873 271.924 213.384 269.853 208.635 265.162L173.453 230.488C173.16 230.195 173.003 229.804 173.023 229.413C173.023 229.003 173.218 228.631 173.512 228.358L184.398 218.644C184.828 218.253 185.473 218.155 186.001 218.409L214.889 232.169L230.799 160.066C234.884 147.127 244.931 136.983 257.694 132.82L324.109 116.499C324.324 116.44 324.539 116.44 324.754 116.499L352.724 122.402C371.155 126.33 383.918 143.452 382.413 162.235L363.044 295.262C362.946 295.985 362.321 296.513 361.598 296.513H361.617ZM252.69 234.045C252.69 234.045 252.866 234.045 252.964 234.065C253.589 234.182 254.078 234.69 254.156 235.335L258.71 274.7C259.961 285.47 269.069 293.581 279.917 293.581H360.366L379.54 161.903C380.928 144.684 369.142 128.871 352.157 125.255L324.52 119.431L258.534 135.634C246.748 139.485 237.425 148.905 233.653 160.828L217.391 234.612C217.293 235.042 217 235.414 216.609 235.609C216.218 235.805 215.73 235.805 215.339 235.609L185.669 221.478L176.678 229.491L210.746 263.07C214.831 267.097 220.401 268.875 226.05 267.976C231.698 267.077 236.448 263.657 239.087 258.575L251.42 234.808C251.674 234.319 252.182 234.026 252.729 234.026L252.69 234.045Z" fill="#000C19"/>
<path d="M395.472 163.486H307.244C305.075 163.486 302.964 163.838 300.99 164.463C309.16 167.18 314.808 175.252 313.987 184.341L305.309 298.291H405.851L414.529 184.341C415.546 173.142 406.711 163.486 395.472 163.486Z" fill="white"/>
<path d="M405.851 299.738H305.31C304.899 299.738 304.508 299.562 304.235 299.268C303.961 298.975 303.824 298.565 303.844 298.154L312.522 184.204C313.265 175.976 308.32 168.431 300.521 165.832C299.915 165.636 299.505 165.069 299.524 164.424C299.544 163.779 299.935 163.232 300.541 163.037C302.749 162.333 304.997 161.981 307.245 161.981H395.473C401.239 161.981 406.79 164.424 410.679 168.685C414.569 172.946 416.504 178.693 415.996 184.439L407.337 298.369C407.278 299.132 406.633 299.718 405.871 299.718L405.851 299.738ZM306.893 296.806H404.483L413.044 184.224C413.494 179.279 411.832 174.353 408.49 170.698C405.148 167.043 400.398 164.952 395.453 164.952H307.225C306.697 164.952 306.17 164.972 305.642 165.011C312.248 169.018 316.157 176.464 315.434 184.458L306.893 296.806Z" fill="#000C19"/>
<path d="M300.989 164.464C293.191 166.927 287.307 173.865 286.545 182.407L277.711 298.272H305.328L314.006 184.322C314.827 175.233 309.179 167.161 301.009 164.444L300.989 164.464Z" fill="white"/>
<path d="M305.309 299.848H277.691C277.281 299.848 276.89 299.672 276.616 299.379C276.343 299.085 276.206 298.675 276.225 298.264L285.06 182.399C285.861 173.428 291.94 165.883 300.52 163.166C300.814 163.069 301.126 163.069 301.419 163.166C310.528 166.196 316.274 174.991 315.414 184.569L306.755 298.499C306.697 299.261 306.052 299.848 305.289 299.848H305.309ZM279.274 296.916H303.941L312.502 184.334C313.225 176.262 308.495 168.854 300.95 166.118C293.738 168.6 288.656 175.03 287.972 182.653L279.255 296.935L279.274 296.916Z" fill="#000C19"/>
<path d="M174.02 213.583L185.376 219.739L174.49 229.453L166.886 225.134L163.134 226.483C160.339 227.44 158.892 227.44 157.25 226.385C154.964 224.899 156.097 220.893 156.097 220.893C157.661 216.495 160.808 214.579 164.658 212.801C164.658 212.801 169.369 211.257 174.001 213.563L174.02 213.583Z" fill="white"/>
<path d="M174.49 230.919C174.236 230.919 174.001 230.86 173.767 230.723L166.75 226.736L163.623 227.85C160.808 228.828 158.756 229.082 156.45 227.616C153.928 225.974 154.143 222.358 154.691 220.482C156.547 215.263 160.339 213.172 164.053 211.471C164.424 211.334 169.565 209.712 174.666 212.253H174.705L186.061 218.449C186.471 218.683 186.765 219.094 186.823 219.563C186.882 220.032 186.706 220.501 186.335 220.833L175.448 230.548C175.174 230.802 174.822 230.919 174.471 230.919H174.49ZM166.887 223.668C167.141 223.668 167.395 223.726 167.61 223.863L174.295 227.655L182.836 220.032L173.317 214.872C169.291 212.859 165.147 214.188 165.108 214.188C161.219 215.986 158.776 217.687 157.466 221.381C157.271 222.065 156.919 224.43 158.033 225.153C159.088 225.837 160.007 225.993 162.626 225.094L166.359 223.746C166.516 223.687 166.691 223.668 166.848 223.668H166.887Z" fill="#000C19"/>
<path d="M325.499 118.102L316.938 107.098L292.017 111.378L285.45 127.464L325.499 118.102Z" fill="white"/>
<path d="M285.469 128.93C285.039 128.93 284.629 128.754 284.355 128.422C284.003 128.011 283.905 127.425 284.12 126.917L290.668 110.831C290.864 110.362 291.274 110.03 291.782 109.932L316.703 105.651C317.23 105.573 317.778 105.769 318.11 106.199L326.671 117.203C326.984 117.594 327.062 118.121 326.886 118.59C326.71 119.06 326.319 119.411 325.83 119.529L285.801 128.891C285.684 128.91 285.586 128.93 285.469 128.93ZM293.072 112.688L287.893 125.392L322.938 117.203L316.331 108.7L293.072 112.688Z" fill="#000C19"/>
<path d="M204.26 228.788L190.402 245.363L174.492 229.453L185.379 219.739L204.26 228.788Z" fill="white"/>
<path d="M190.401 246.829C190.01 246.829 189.639 246.672 189.365 246.399L173.475 230.489C173.182 230.195 173.025 229.805 173.045 229.414C173.045 229.003 173.24 228.632 173.533 228.358L184.42 218.644C184.87 218.253 185.495 218.155 186.023 218.41L204.904 227.459C205.314 227.655 205.607 228.026 205.705 228.475C205.803 228.925 205.705 229.375 205.392 229.726L191.515 246.301C191.242 246.614 190.87 246.809 190.46 246.829C190.44 246.829 190.421 246.829 190.401 246.829ZM176.641 229.511L190.303 243.193L201.933 229.296L185.632 221.478L176.622 229.511H176.641Z" fill="#000C19"/>
<path d="M252.693 236.977C252.595 236.977 252.478 236.977 252.36 236.938C251.579 236.762 251.07 235.981 251.246 235.179C264.42 176.816 247.454 162.451 247.279 162.314C246.653 161.806 246.536 160.887 247.044 160.261C247.533 159.636 248.451 159.519 249.096 160.007C249.859 160.594 267.801 175.292 254.119 235.824C253.963 236.508 253.357 236.958 252.693 236.958V236.977Z" fill="#000C19"/>
<path d="M455.221 299.932H28.5C27.5227 299.932 27 299.267 27 298.466C27 297.665 27.5227 297 28.5 297H455.221C456.199 297 457 297.665 457 298.466C457 299.267 456.199 299.932 455.221 299.932Z" fill="#05141F"/>
</svg>
