<svg width="480" height="320" viewBox="0 0 480 320" fill="none" xmlns="http://www.w3.org/2000/svg">
<path d="M73.9048 255.618C78.5182 254.804 90.2843 253.466 104.745 255.579C105.888 255.753 106.838 256.509 107.362 257.537C108.273 259.339 109.998 262.732 112.537 267.83C112.537 267.83 117.092 270.214 119.457 272.54C120.194 273.277 120.62 274.285 120.62 275.331V289.772C120.62 289.772 120.523 291.769 117.965 291.769L59.677 291.691C59.677 291.691 57.3896 291.304 57.3896 288.726V275.37C57.3896 274.362 57.8161 273.393 58.5915 272.734C60.0259 271.474 62.6233 269.458 65.4728 268.334C65.4728 268.334 69.1945 261.433 71.1911 257.634C71.7338 256.587 72.7418 255.87 73.8854 255.656L73.9048 255.618Z" fill="white"/>
<path d="M117.965 293.204L59.6768 293.126C59.6768 293.126 59.5217 293.126 59.4442 293.107C58.2424 292.894 55.9551 291.711 55.9551 288.726V275.371C55.9551 273.936 56.5754 272.56 57.6609 271.629C58.979 270.486 61.5377 268.45 64.4647 267.171C65.3176 265.582 68.2445 260.154 69.931 256.936C70.6869 255.483 72.0438 254.494 73.6721 254.223C77.0449 253.622 89.2762 251.877 104.977 254.184C106.547 254.416 107.943 255.424 108.68 256.917C109.571 258.681 111.219 261.918 113.661 266.803C114.882 267.462 118.43 269.478 120.523 271.532C121.531 272.521 122.113 273.917 122.113 275.351V289.792C122.055 291.227 120.892 293.243 118.003 293.243L117.965 293.204ZM59.8513 290.219L117.965 290.296C119.108 290.296 119.166 289.753 119.166 289.676V275.312C119.166 274.653 118.895 274.014 118.449 273.568C116.278 271.416 111.917 269.148 111.878 269.109C111.607 268.974 111.393 268.741 111.258 268.47C108.718 263.372 106.993 259.999 106.082 258.196C105.753 257.557 105.19 257.13 104.551 257.033C89.2762 254.785 77.4326 256.49 74.1761 257.072C73.4588 257.208 72.8386 257.634 72.509 258.293C70.4931 262.112 66.7714 269.013 66.7714 269.013C66.6163 269.303 66.3449 269.555 66.0348 269.672C63.321 270.757 60.8205 272.734 59.5799 273.82C59.1341 274.207 58.8821 274.77 58.8821 275.371V288.726C58.8821 289.792 59.5217 290.122 59.89 290.238L59.8513 290.219Z" fill="#05141F"/>
<path d="M69.5048 291.769V295.568C69.5048 297.061 68.303 298.263 66.8104 298.263H62.5459C61.0534 298.263 59.8516 297.061 59.8516 295.568V291.769H69.5242H69.5048Z" fill="#05141F"/>
<path d="M115.059 292.816L108.507 287.64C107.712 287.02 107.034 286.458 106.413 285.934C103.893 283.841 102.847 282.988 100.656 282.988H76.1161C74.1777 282.988 73.0341 284.074 71.0181 286.128C70.3009 286.865 69.5062 287.679 68.5757 288.512L64.2143 292.583L62.2178 290.451L66.6179 286.341C67.4902 285.566 68.2268 284.81 68.9246 284.093C70.9406 282.019 72.8402 280.061 76.1161 280.061H100.656C103.893 280.061 105.638 281.495 108.274 283.686C108.875 284.19 109.554 284.733 110.31 285.353L116.861 290.528L115.059 292.816Z" fill="#05141F"/>
<path d="M59.7352 262.829H62.7203C64.116 262.829 65.2402 263.953 65.2402 265.349V267.656H60.1422C58.6884 267.656 57.5254 266.473 57.5254 265.039C57.5254 263.818 58.514 262.829 59.7352 262.829Z" fill="white"/>
<path d="M66.6937 269.11H60.1419C57.8934 269.11 56.0713 267.288 56.0713 265.039C56.0713 263.023 57.7189 261.375 59.7349 261.375H62.72C64.9104 261.375 66.6937 263.159 66.6937 265.349V269.11ZM59.7155 264.283C59.3084 264.283 58.9595 264.613 58.9595 265.039C58.9595 265.679 59.4829 266.202 60.1225 266.202H63.7667V265.349C63.7667 264.768 63.2821 264.283 62.7006 264.283H59.7155Z" fill="#05141F"/>
<path d="M117.83 267.656H112.732V265.35C112.732 263.954 113.857 262.83 115.252 262.83H118.238C119.459 262.83 120.447 263.818 120.447 265.039C120.447 266.493 119.265 267.656 117.83 267.656Z" fill="white"/>
<path d="M117.811 269.11H111.259V265.349C111.259 263.159 113.042 261.375 115.233 261.375H118.218C120.234 261.375 121.881 263.023 121.881 265.039C121.881 267.288 120.059 269.11 117.811 269.11ZM114.166 266.202H117.811C118.45 266.202 118.974 265.679 118.974 265.039C118.974 264.632 118.644 264.283 118.218 264.283H115.233C114.651 264.283 114.166 264.768 114.166 265.349V266.202Z" fill="#05141F"/>
<path d="M88.9465 271.532C76.1143 271.532 65.8989 269.826 65.2398 269.71L63.2433 269.381L69.9114 256.897C70.4735 255.87 72.0436 254.125 74.3891 254.028C74.7962 253.951 88.7526 251.644 105.093 254.203C105.888 254.28 107.361 254.61 108.893 257.363L106.353 258.758C105.733 257.634 105.287 257.266 105.093 257.13L104.822 257.091C88.8883 254.571 74.8349 256.878 74.6992 256.897C73.2261 256.975 72.4701 258.274 72.4507 258.274L67.7016 267.132C74.1565 268.024 94.878 270.311 112.362 266.202L113.021 269.032C105.035 270.912 96.5063 271.513 88.9077 271.513L88.9465 271.532Z" fill="#05141F"/>
<path d="M73.4401 279.829L64.6009 279.635C63.8062 279.635 63.0308 279.267 62.4881 278.647C61.7903 277.852 60.162 275.758 60.3946 273.801C60.4915 272.928 60.9567 272.172 61.6933 271.668C62.333 271.106 64.8917 270.001 72.4127 273.529C73.9247 274.227 75.8049 275.332 76.1926 276.65C76.3283 277.076 76.3089 277.522 76.1344 277.91C75.9406 278.685 75.2234 279.732 73.4401 279.829ZM64.6591 276.727L63.5736 277.697L64.6591 276.747V276.727ZM64.6591 276.727L72.5484 276.902C72.1413 276.65 71.6567 276.379 71.1915 276.165C65.7834 273.626 63.7674 273.936 63.3797 274.052L63.2828 274.149C63.2247 274.576 63.7287 275.661 64.6591 276.727Z" fill="#05141F"/>
<path d="M111.995 279.868L103.776 279.81C101.741 279.693 101.082 278.395 101.004 277.619C100.752 275.855 102.846 274.421 104.648 273.529C111.976 269.963 114.476 271.087 115.213 271.746C115.814 272.172 116.24 272.909 116.356 273.762C116.589 275.7 115.038 277.794 114.34 278.588C113.914 279.073 112.964 279.829 111.995 279.848V279.868ZM104.629 276.921L111.801 276.96C111.898 276.902 112.053 276.805 112.111 276.728C112.945 275.758 113.507 274.634 113.449 274.13L113.332 274.033C112.887 273.917 110.929 273.704 105.908 276.146C105.463 276.359 104.997 276.65 104.61 276.921H104.629Z" fill="#05141F"/>
<path d="M118.449 291.769V295.568C118.449 297.061 117.247 298.263 115.755 298.263H111.49C109.998 298.263 108.796 297.061 108.796 295.568V291.769H118.468H118.449Z" fill="#05141F"/>
<path d="M453.544 301H26.456C25.66 301 25 300.32 25 299.5C25 298.68 25.66 298 26.456 298H453.544C454.34 298 455 298.68 455 299.5C455 300.32 454.34 301 453.544 301Z" fill="#05141F"/>
<path d="M319.134 297.887L324.774 263.17C325.957 250.124 336.87 240.142 349.974 240.142H430.805C444.49 240.142 455.229 251.888 453.988 265.515L446.118 297.79" fill="white"/>
<path d="M319.133 299.34C319.133 299.34 318.978 299.34 318.901 299.34C318.106 299.204 317.563 298.467 317.699 297.673L323.339 262.956C324.58 249.174 336.036 238.707 349.973 238.707H430.804C437.744 238.707 444.393 241.634 449.064 246.751C453.736 251.868 456.062 258.75 455.442 265.65C455.442 265.728 455.442 265.786 455.403 265.864L447.533 298.138C447.339 298.913 446.544 299.398 445.769 299.204C444.994 299.01 444.509 298.235 444.703 297.44L452.534 265.282C453.057 259.234 451.003 253.186 446.893 248.709C442.764 244.192 436.891 241.595 430.785 241.595H349.954C337.529 241.595 327.313 250.918 326.208 263.305L320.548 298.119C320.432 298.836 319.812 299.34 319.114 299.34H319.133Z" fill="#000C19"/>
<path d="M411.963 192.417C410.528 182.357 404.907 173.208 396.203 167.412L351.853 137.89L290.638 158.166C278.058 162.333 268.385 172.51 264.857 185.303L240.995 272.105C238.282 281.972 243.166 292.303 252.451 296.49C262.299 300.929 274.607 296.335 279.589 286.74L283.233 279.704L286.102 299.592H401.67C415.49 299.592 426.132 287.36 424.213 273.675C419.735 241.769 411.963 192.417 411.963 192.417Z" fill="white"/>
<path d="M401.651 301.026H286.083C285.366 301.026 284.746 300.502 284.649 299.785L282.419 284.375L280.869 287.379C275.519 297.692 262.221 302.46 251.851 297.788C241.829 293.272 236.673 282.301 239.581 271.698L263.443 184.896C267.106 171.618 277.089 161.092 290.173 156.77L351.388 136.494C351.814 136.358 352.279 136.417 352.648 136.669L396.998 166.19C405.896 172.122 411.866 181.581 413.397 192.184C413.552 193.154 421.248 242.059 425.648 273.442C426.617 280.382 424.543 287.399 419.93 292.69C415.336 297.982 408.668 301.026 401.651 301.026ZM287.343 298.118H401.651C407.815 298.118 413.688 295.443 417.739 290.791C421.791 286.139 423.613 279.955 422.76 273.849C418.34 242.311 410.587 193.115 410.509 192.611C410.509 192.611 410.509 192.611 410.509 192.591C409.113 182.822 403.608 174.08 395.39 168.594L351.62 139.46L291.084 159.503C278.93 163.535 269.645 173.304 266.253 185.633L242.391 272.434C239.852 281.642 244.33 291.179 253.053 295.113C262.066 299.184 273.639 295.017 278.291 286.022L281.935 279.005C282.226 278.443 282.846 278.133 283.466 278.249C284.086 278.346 284.571 278.85 284.668 279.471L287.362 298.099L287.343 298.118Z" fill="#000C19"/>
<path d="M324.599 146.903C325.607 141.476 329.871 137.231 335.318 136.261L346.096 134.342C356.563 132.462 366.623 139.266 368.794 149.675L344.913 162.798L334.969 147.562L324.618 159.425V146.923L324.599 146.903Z" fill="white"/>
<path d="M344.913 164.252C344.428 164.252 343.963 164.02 343.692 163.593L334.795 149.947L325.703 160.356C325.296 160.821 324.657 160.976 324.095 160.763C323.532 160.55 323.145 160.007 323.145 159.406V146.884C323.145 146.884 323.145 146.71 323.164 146.613C324.288 140.623 329.057 135.893 335.046 134.808L345.824 132.889C357.144 130.853 367.844 138.103 370.19 149.365C370.325 149.985 370.035 150.625 369.473 150.935L345.591 164.058C345.378 164.175 345.126 164.233 344.894 164.233L344.913 164.252ZM334.969 146.089C334.969 146.089 335.047 146.089 335.066 146.089C335.512 146.128 335.938 146.361 336.19 146.748L345.398 160.86L367.127 148.919C364.685 139.809 355.768 134.071 346.367 135.758L335.589 137.677C330.821 138.53 327.022 142.271 326.072 147.02V155.51L333.883 146.574C334.155 146.264 334.562 146.07 334.988 146.07L334.969 146.089Z" fill="#000C19"/>
<path d="M302.635 107.786L304.031 105.363C305.756 102.378 306.783 99.0442 307.074 95.6326C307.229 93.888 307.365 92.1435 307.617 90.4183L307.965 87.9565C308.877 81.6567 313.955 76.8495 320.177 76.1904C323.763 79.5245 339.697 83.7114 341.093 92.6281C342.76 103.231 341.694 123.003 350.242 128.333C350.242 128.333 348.653 130.408 351.831 137.87L334.541 145.953C334.386 144.946 334.192 143.938 333.863 142.968C332.04 137.696 327.679 133.645 322.193 132.268C316.339 130.795 311.745 126.279 310.175 120.464L307.849 111.818C307.481 110.423 306.221 109.453 304.767 109.473H303.623C302.751 109.473 302.208 108.542 302.635 107.786Z" fill="white"/>
<path d="M334.542 147.427C334.309 147.427 334.077 147.368 333.844 147.252C333.437 147.039 333.166 146.632 333.088 146.186C332.933 145.081 332.72 144.228 332.468 143.472C330.782 138.607 326.808 134.963 321.807 133.703C315.449 132.113 310.448 127.19 308.742 120.851L306.416 112.206C306.222 111.45 305.524 110.926 304.749 110.926H303.605C302.675 110.926 301.841 110.442 301.376 109.647C300.911 108.833 300.911 107.864 301.376 107.069L302.772 104.646C304.381 101.874 305.35 98.7145 305.621 95.5161V95.2448C305.776 93.5971 305.931 91.8913 306.164 90.2049L306.513 87.7431C307.501 80.823 313.065 75.4731 320.004 74.7365C320.43 74.6977 320.838 74.8334 321.148 75.1241C322.078 75.9964 324.365 77.1013 326.769 78.2837C332.953 81.3076 341.423 85.4558 342.509 92.3953C342.916 95.0315 343.168 98.1717 343.439 101.525C344.195 111.295 345.164 123.448 350.999 127.093C351.348 127.306 351.581 127.655 351.658 128.062C351.736 128.469 351.639 128.876 351.387 129.206C351.406 129.206 350.573 131.221 353.17 137.289C353.48 138.006 353.17 138.839 352.453 139.169L335.162 147.252C334.968 147.349 334.755 147.388 334.542 147.388V147.427ZM304.768 108.019C306.862 108.019 308.703 109.434 309.246 111.45L311.572 120.095C313.006 125.406 317.193 129.535 322.543 130.873C328.494 132.365 333.243 136.707 335.24 142.503C335.395 142.929 335.511 143.375 335.628 143.84L349.972 137.134C348.305 132.83 348.227 130.291 348.518 128.876C342.315 123.972 341.385 112.186 340.57 101.738C340.318 98.4625 340.066 95.3611 339.679 92.8411C338.826 87.3942 331.13 83.6337 325.528 80.8812C323.067 79.6794 321.07 78.6908 319.752 77.6828C314.402 78.5164 310.196 82.7227 309.42 88.1308L309.071 90.5926C308.839 92.2015 308.703 93.8491 308.567 95.458V95.7294C308.238 99.3348 307.114 102.921 305.311 106.061L304.206 107.999H304.788L304.768 108.019Z" fill="#000C19"/>
<path d="M309.651 118.564C309.651 118.564 313.218 118.874 316.746 115.811Z" fill="white"/>
<path d="M309.943 120.017C309.71 120.017 309.574 120.017 309.536 120.017C308.741 119.94 308.14 119.242 308.218 118.447C308.295 117.653 308.954 117.052 309.788 117.129C309.923 117.129 312.831 117.304 315.797 114.726C316.398 114.202 317.328 114.26 317.851 114.861C318.375 115.462 318.317 116.393 317.716 116.916C314.44 119.765 311.106 120.017 309.962 120.017H309.943Z" fill="#000C19"/>
<path d="M346.171 96.447C344.872 83.5179 336.944 78.73 330.431 77.0048C325.74 75.7643 321.243 73.884 317.037 71.461C314.769 70.1429 311.803 69.794 308.585 72.8179C306.395 74.8726 305.755 76.811 305.91 78.4974C306.298 82.3936 310.892 84.1963 314.09 81.9672C314.129 81.9284 314.187 81.909 314.226 81.8702C318.549 78.9432 324.461 80.242 327.271 84.6228C327.271 84.6228 327.271 84.6421 327.291 84.6615C328.861 87.1039 329.442 90.0503 329.074 92.9191L328.686 95.9624C328.279 99.0832 329.132 102.223 331.032 104.724L332.389 102.495C333.222 100.576 334.851 99.4128 336.246 99.8586C337.778 100.343 338.437 102.572 337.719 104.84C337.274 106.236 336.401 107.321 335.432 107.845C339.037 116.296 344.601 124.825 350.241 128.334L346.151 96.4276L346.171 96.447Z" fill="#000C19"/>
<path d="M350.242 129.788C349.971 129.788 349.699 129.71 349.467 129.574C343.09 125.601 337.352 116.044 334.095 108.407C333.805 107.709 334.095 106.895 334.754 106.546C335.278 106.275 335.956 105.558 336.324 104.394C336.576 103.58 336.615 102.747 336.421 102.088C336.363 101.875 336.169 101.351 335.801 101.235C335.239 101.06 334.27 101.778 333.708 103.057C333.688 103.115 333.65 103.173 333.611 103.231L332.254 105.461C332.002 105.868 331.575 106.139 331.091 106.158C330.606 106.178 330.141 105.965 329.85 105.596C327.699 102.766 326.768 99.2965 327.214 95.7686L327.602 92.7253C327.931 90.1278 327.388 87.5304 326.051 85.4369C324.849 83.576 323.046 82.3355 320.914 81.8896C318.84 81.4632 316.747 81.8896 315.021 83.0527C312.909 84.5259 310.311 84.7585 308.121 83.7311C306.047 82.7813 304.67 80.8623 304.438 78.6137C304.205 76.2101 305.252 73.884 307.559 71.7324C311.61 67.9331 315.332 68.786 317.735 70.1817C321.845 72.5465 326.225 74.3686 330.781 75.5898C337.681 77.4313 346.191 82.5099 347.587 96.2726L351.657 128.159C351.735 128.721 351.463 129.264 350.998 129.574C350.766 129.729 350.494 129.807 350.203 129.807L350.242 129.788ZM337.236 108.329C340.395 115.424 344.446 121.472 348.362 125.058L344.718 96.6215C344.718 96.6215 344.718 96.6021 344.718 96.5827C343.497 84.4483 336.073 80.0094 330.063 78.4005C325.276 77.1212 320.643 75.2021 316.32 72.7016C314.033 71.3835 311.823 71.7518 309.575 73.8453C307.966 75.3572 307.21 76.8692 307.365 78.323C307.481 79.5442 308.218 80.5715 309.361 81.0949C310.621 81.6764 312.133 81.5407 313.277 80.746C315.797 79.0208 318.685 78.4587 321.534 79.0402C324.442 79.6411 326.923 81.3275 328.513 83.828C330.257 86.5418 330.955 89.8177 330.529 93.0936L330.141 96.1369C329.889 98.1334 330.199 100.13 331.033 101.913L331.091 101.816C332.254 99.1996 334.599 97.7845 336.693 98.463C337.895 98.8506 338.806 99.8586 339.232 101.254C339.6 102.475 339.542 103.89 339.116 105.267C338.728 106.488 338.069 107.535 337.236 108.31V108.329Z" fill="#000C19"/>
<path d="M316.166 93.559C316.166 93.559 312.154 90.9615 307.87 94.4894Z" fill="white"/>
<path d="M307.869 95.9425C307.443 95.9425 307.036 95.7681 306.745 95.4192C306.241 94.7989 306.318 93.8878 306.939 93.3645C310.971 90.0304 315.254 91.2322 316.941 92.3371C317.619 92.7829 317.813 93.6746 317.367 94.353C316.941 95.0315 316.049 95.2253 315.371 94.7989C315.235 94.702 312.153 92.8605 308.78 95.6324C308.509 95.865 308.179 95.9619 307.85 95.9619L307.869 95.9425Z" fill="#000C19"/>
<path d="M224.598 223.141L194.979 221.901L178.405 176.135C177.766 174.39 178.968 172.51 180.828 172.355L207.927 172.995C209.207 172.878 210.389 173.654 210.816 174.856L227.001 219.361C227.641 221.106 226.439 222.986 224.578 223.141H224.598Z" fill="#70D7BF"/>
<path d="M224.597 224.595C224.597 224.595 224.558 224.595 224.539 224.595L194.92 223.354C194.338 223.335 193.815 222.947 193.621 222.404L177.048 176.639C176.583 175.379 176.738 174.002 177.474 172.878C178.191 171.754 179.374 171.037 180.711 170.92L207.965 171.56C209.749 171.405 211.532 172.549 212.191 174.371L228.377 218.876C228.842 220.136 228.687 221.513 227.95 222.637C227.233 223.761 226.051 224.478 224.713 224.595C224.674 224.595 224.636 224.595 224.597 224.595ZM196.025 220.485L224.558 221.687C224.946 221.629 225.295 221.416 225.527 221.067C225.76 220.699 225.799 220.272 225.663 219.865L209.477 175.359C209.264 174.778 208.721 174.39 208.062 174.468L180.808 173.828C180.537 173.867 180.169 174.08 179.936 174.448C179.703 174.817 179.665 175.243 179.8 175.65L196.044 220.505L196.025 220.485Z" fill="#000C19"/>
<path d="M227.581 269.953L204.224 233.336L191.624 225.66C186.642 222.617 183.599 217.209 183.599 211.374L184.103 197.437L189.453 211.141L190.19 202.806C190.325 201.372 190.674 199.957 191.256 198.619L191.643 197.747C194.59 193.928 199.029 203.446 199.649 207.749L200.773 215.328L211.667 220.756C215.505 220.756 219.285 221.9 222.464 224.051L244.717 238.977L227.581 269.953Z" fill="white"/>
<path d="M227.581 271.407C227.077 271.407 226.632 271.155 226.36 270.728L203.177 234.403L190.868 226.901C185.499 223.625 182.145 217.674 182.145 211.374L182.649 197.379C182.669 196.681 183.173 196.119 183.851 196.003C184.549 195.887 185.208 196.274 185.441 196.914L188.542 204.842L188.736 202.69C188.872 201.081 189.279 199.531 189.918 198.058L190.306 197.185C190.345 197.069 190.422 196.972 190.48 196.875C191.74 195.247 193.194 195.344 193.95 195.538C197.808 196.546 200.638 204.667 201.084 207.575L202.091 214.398L211.997 219.341C216.029 219.399 219.905 220.621 223.259 222.869L245.512 237.795C246.132 238.221 246.345 239.055 245.977 239.714L228.841 270.689C228.589 271.135 228.124 271.426 227.62 271.445H227.581V271.407ZM185.305 204.512L185.053 211.432C185.053 216.666 187.864 221.667 192.38 224.42L204.98 232.096C205.174 232.212 205.329 232.367 205.445 232.561L227.504 267.123L242.817 239.462L221.669 225.292C218.704 223.296 215.253 222.249 211.667 222.249C211.435 222.249 211.221 222.191 211.028 222.094L200.134 216.666C199.707 216.453 199.416 216.046 199.339 215.581L198.215 208.002C197.672 204.357 194.784 198.775 193.233 198.368C193.175 198.368 193.097 198.329 192.884 198.561L192.574 199.24C192.051 200.422 191.74 201.682 191.624 202.962L190.888 211.297C190.829 211.975 190.306 212.518 189.647 212.615C188.969 212.712 188.329 212.324 188.096 211.704L185.305 204.551V204.512Z" fill="#000C19"/>
<path d="M242.314 298.079L227.582 269.953L244.717 238.978L253.498 245.025C263.442 251.868 265.807 265.534 258.732 275.323L242.294 298.079H242.314Z" fill="white" stroke="#000C19" stroke-width="1.5" stroke-linecap="round" stroke-linejoin="round"/>
<path d="M334.95 147.543L342.742 159.484L334.95 167.179L343.77 206.955L321.517 238.977L313.201 203.912L330.24 166.171" fill="white"/>
<path d="M321.517 240.431C321.517 240.431 321.343 240.431 321.246 240.412C320.684 240.296 320.238 239.869 320.102 239.327L311.787 204.261C311.709 203.951 311.748 203.621 311.884 203.33L328.69 166.094L325.782 156.906C325.627 156.421 325.743 155.898 326.073 155.51L333.865 146.593C334.175 146.245 334.621 146.07 335.067 146.109C335.513 146.148 335.939 146.38 336.191 146.768L343.964 158.689C344.332 159.271 344.255 160.027 343.77 160.511L336.559 167.644L345.205 206.645C345.282 207.033 345.205 207.459 344.972 207.789L322.719 239.811C322.448 240.199 322.002 240.431 321.517 240.431ZM314.733 204.048L322.176 235.469L342.22 206.626L333.536 167.47C333.419 166.985 333.574 166.481 333.943 166.113L340.882 159.251L334.795 149.927L328.806 156.789L331.636 165.725C331.752 166.074 331.713 166.443 331.578 166.772L314.733 204.067V204.048Z" fill="#000C19"/>
<path d="M317.834 210.891L289.553 197.864L273.271 181.543C269.413 177.666 263.637 176.387 258.5 178.267L239.581 184.722C239.581 186.816 240.919 188.987 245.028 187.959L260.148 185.691L256.445 193.93C253.77 199.493 259.333 206.277 263.656 208.642L277.69 216.047L302.831 239.87" fill="white"/>
<path d="M302.831 241.343C302.463 241.343 302.114 241.207 301.823 240.936L276.837 217.248L262.978 209.941C257.841 207.13 252.123 199.589 255.146 193.309L257.744 187.533L245.241 189.393C243.07 189.936 241.209 189.704 239.891 188.676C238.748 187.785 238.127 186.389 238.127 184.722C238.127 184.102 238.515 183.539 239.116 183.346L258.035 176.891C263.656 174.836 270.053 176.251 274.317 180.516L290.406 196.662L318.455 209.572C319.191 209.902 319.501 210.774 319.172 211.511C318.842 212.247 317.97 212.557 317.233 212.228L288.952 199.202C288.797 199.124 288.661 199.027 288.526 198.911L272.243 182.59C268.793 179.12 263.598 177.976 259.004 179.663L241.209 185.73C241.306 185.982 241.461 186.234 241.694 186.408C242.276 186.854 243.342 186.912 244.698 186.583L259.973 184.295C260.496 184.237 261.02 184.431 261.349 184.858C261.679 185.284 261.737 185.846 261.524 186.331L257.821 194.569C255.515 199.376 260.884 205.482 264.393 207.421L278.407 214.825C278.524 214.883 278.64 214.961 278.737 215.058L303.878 238.881C304.459 239.424 304.479 240.354 303.936 240.936C303.645 241.246 303.258 241.381 302.889 241.381L302.831 241.343Z" fill="#000C19"/>
<path d="M317.835 210.891L302.832 239.889L316.788 257.432L339.332 219.768L317.835 210.891Z" fill="white"/>
<path d="M316.788 258.885C316.342 258.885 315.935 258.691 315.644 258.342L301.688 240.8C301.339 240.354 301.281 239.734 301.533 239.23L316.536 210.231C316.885 209.553 317.699 209.262 318.378 209.553L339.874 218.431C340.262 218.586 340.572 218.915 340.708 219.322C340.844 219.729 340.785 220.156 340.572 220.524L318.048 258.187C317.796 258.594 317.37 258.866 316.904 258.885C316.866 258.885 316.846 258.885 316.807 258.885H316.788ZM304.557 239.714L316.614 254.873L337.199 220.466L318.494 212.732L304.537 239.714H304.557Z" fill="#000C19"/>
<path d="M312.445 98.308C310.604 97.9203 309.751 101.875 311.592 102.262C313.434 102.65 314.287 98.6956 312.445 98.308Z" fill="#000C19"/>
<path d="M405.877 251.015C405.683 251.015 405.47 250.976 405.276 250.879L338.731 221.086C337.994 220.756 337.665 219.903 337.994 219.167C338.324 218.43 339.177 218.101 339.913 218.43L406.459 248.223C407.195 248.553 407.525 249.406 407.195 250.142C406.963 250.685 406.42 250.995 405.877 250.995V251.015Z" fill="#000C19"/>
<path d="M381.977 300.948C381.686 300.948 381.376 300.851 381.124 300.657L318.455 254.388C317.816 253.903 317.68 252.992 318.145 252.352C318.63 251.713 319.521 251.577 320.18 252.042L382.849 298.312C383.489 298.796 383.624 299.707 383.159 300.347C382.868 300.735 382.442 300.929 381.996 300.929L381.977 300.948Z" fill="#000C19"/>
<path d="M283.214 279.704L274.588 229.305" stroke="#000C19" stroke-width="1.5" stroke-linecap="round" stroke-linejoin="round"/>
<path d="M397.949 180.4C397.949 180.4 369.61 190.053 368.795 202.633C368.001 215.214 368.795 232.969 368.795 232.969" fill="white"/>
<path d="M368.795 234.423C368.02 234.423 367.38 233.822 367.342 233.027C367.342 232.853 366.547 215.039 367.342 202.536C368.195 189.142 396.282 179.43 397.464 179.023C398.24 178.771 399.054 179.178 399.306 179.934C399.558 180.69 399.151 181.524 398.395 181.776C390.758 184.373 370.831 193.212 370.23 202.711C369.435 215.058 370.23 232.717 370.23 232.891C370.269 233.686 369.648 234.365 368.854 234.403C368.834 234.403 368.815 234.403 368.776 234.403L368.795 234.423Z" fill="#000C19"/>
<path d="M384.263 239.888C384.263 239.888 400.08 235.023 413.106 242.059Z" fill="white"/>
<path d="M413.106 243.533C412.874 243.533 412.641 243.474 412.408 243.358C400.099 236.69 384.844 241.245 384.689 241.284C383.933 241.517 383.119 241.09 382.867 240.315C382.634 239.539 383.061 238.745 383.836 238.493C384.515 238.279 400.39 233.53 413.804 240.78C414.502 241.168 414.773 242.04 414.385 242.757C414.114 243.242 413.629 243.513 413.106 243.513V243.533Z" fill="#000C19"/>
<path d="M253.499 245.025C253.499 245.025 268.793 250.259 276.352 267.433Z" fill="white"/>
<path d="M253.499 245.025C253.499 245.025 268.793 250.259 276.352 267.433" stroke="#000C19" stroke-width="1.5" stroke-linecap="round" stroke-linejoin="round"/>
<path d="M307.097 299.572L167.745 298.913L134.812 221.726L270.577 220.272L304.305 293.524L307.097 299.572Z" fill="white"/>
<path d="M307.096 301.026L167.744 300.367C167.162 300.367 166.639 300.018 166.406 299.476L133.473 222.288C133.279 221.843 133.318 221.339 133.589 220.932C133.861 220.525 134.307 220.273 134.791 220.273L270.557 218.799C271.119 218.799 271.642 219.129 271.875 219.652L308.394 298.972C308.608 299.417 308.569 299.941 308.297 300.367C308.026 300.774 307.561 301.026 307.076 301.026H307.096ZM168.713 297.46L304.828 298.099L269.646 221.707L137.001 223.141L168.713 297.44V297.46Z" fill="#000C19"/>
<path d="M359.587 300.581C359.122 300.581 358.657 300.348 358.386 299.941L355.11 295.037L304.304 294.998C303.509 294.998 302.85 294.339 302.85 293.544C302.85 292.749 303.509 292.09 304.304 292.09L355.885 292.129C356.37 292.129 356.815 292.381 357.087 292.769L360.789 298.332C361.235 298.991 361.06 299.902 360.382 300.348C360.13 300.503 359.859 300.6 359.568 300.6L359.587 300.581Z" fill="#000C19"/>
</svg>
